<svg width="99" height="13" viewBox="0 0 99 13" fill="none" xmlns="http://www.w3.org/2000/svg">
<path d="M2.72986 5.61575L2.46927 7.66692H1.16635L0.905762 9.9232H2.17974L1.90467 12.2674H3.19312L3.49714 9.9232H4.88693L4.59739 12.2674H5.90032L6.18986 9.9232H7.47831L7.75338 7.66692H6.46492L6.72551 5.61575H8.02844L8.28902 3.35947H7.01505L7.29011 1.01529H6.00166L5.69764 3.35947H4.30785L4.59739 1.01529H3.29446L3.00493 3.35947H1.71647L1.44141 5.61575H2.72986ZM5.42258 5.61575L5.16199 7.66692H3.7722L4.03279 5.61575H5.42258ZM15.8323 9.08808C15.8323 7.4618 15.2387 6.62669 14.3701 6.36297C15.1229 6.08459 15.5572 5.33738 15.5572 4.10669C15.5572 2.3632 14.732 1.01529 12.879 1.01529H9.46238V12.2674H13.4436C14.9492 12.2674 15.8323 11.4176 15.8323 9.08808ZM11.7787 7.32994H12.3578C13.0672 7.32994 13.3277 8.0918 13.3277 8.86831C13.3277 10.0551 12.9369 10.3481 12.3867 10.3481H11.7787V7.32994ZM11.7787 2.89064H12.3433C12.9224 2.89064 13.1251 3.49134 13.1251 4.3118C13.1251 5.05901 12.8934 5.46924 12.3723 5.46924H11.7787V2.89064ZM19.2184 10.1137V7.54971H21.9691V5.48389H19.2184V3.13971H22.302V1.01529H16.7573V12.2674H22.5916V10.1137H19.2184ZM25.2684 1.01529H22.8073L25.2249 7.87203V12.2674H27.686V7.87203L30.0313 1.01529H27.9176L26.6002 5.19087L25.2684 1.01529ZM36.4685 6.62669C36.4685 2.40715 35.7012 0.839478 33.2112 0.839478C30.6487 0.839478 29.9538 2.71483 29.9538 6.62669C29.9538 11.3737 30.8225 12.4432 33.2112 12.4432C35.9184 12.4432 36.4685 10.9488 36.4685 6.62669ZM33.2112 2.75878C33.9784 2.75878 33.9495 3.54994 33.9495 6.65599C33.9495 9.92319 33.9061 10.392 33.2112 10.392C32.5307 10.392 32.4728 9.93785 32.4728 6.65599C32.4728 3.56459 32.4728 2.75878 33.2112 2.75878ZM39.4529 6.31901L41.8271 12.2674H43.6512V1.01529H41.7258V6.36297L39.5832 1.01529H37.4406V12.2674H39.4529V6.31901ZM51.5492 7.16878C51.5492 3.46204 50.5647 1.01529 48.5235 1.01529H44.9476V12.2674H48.3497C50.8108 12.2674 51.5492 10.1283 51.5492 7.16878ZM47.3508 2.91994H47.8865C48.9288 2.91994 49.0881 3.88692 49.0881 6.90506C49.0881 9.76203 48.7117 10.2309 47.9154 10.2309H47.3508V2.91994ZM56.1651 3.0811H58.134V1.01529H51.7352V3.0811H53.704V12.2674H56.1651V3.0811ZM61.2039 12.2674V7.47645C61.2039 6.39227 61.5513 5.70366 62.087 5.70366C62.4778 5.70366 62.6226 5.93808 62.6226 6.31901V12.2674H64.91V5.67436C64.91 4.3118 64.0269 3.69646 63.0859 3.69646C62.1159 3.69646 61.45 4.26785 61.1894 5.22017V1.01529H58.9165V12.2674H61.2039ZM68.1514 8.51668L71.9154 8.54599C71.9009 8.0332 71.8719 7.52041 71.814 6.93436C71.6114 4.82459 70.7717 3.5939 68.9621 3.5939C66.9498 3.5939 65.8495 4.9418 65.8495 8.17971C65.8495 11.696 67.1525 12.4139 69.1503 12.4139C71.1915 12.4139 71.9009 11.2858 71.9009 9.83529C71.9009 9.58622 71.8864 9.36645 71.8575 9.20529L69.8741 9.14668L69.9031 9.48366C69.961 10.2016 69.7438 10.6118 69.1213 10.6118C68.4554 10.6118 68.1369 10.3774 68.1514 8.51668ZM69.6859 7.32994H68.1514C68.1948 5.98204 68.354 5.27878 68.9621 5.27878C69.5556 5.27878 69.5991 5.70366 69.6859 7.32994ZM76.4894 11.359C76.6486 11.989 76.7934 12.4432 77.9516 12.4432C78.5306 12.4432 79.269 12.1648 79.4861 12.0037V10.8609C79.4137 10.8755 79.3558 10.8609 79.2834 10.8609C78.9939 10.8609 78.7478 10.6851 78.7478 10.3774V5.48389C78.7478 4.3704 77.9226 3.5939 75.6063 3.5939C73.9993 3.5939 72.6819 4.19459 72.6819 5.70366C72.6819 6.1139 72.7254 6.27506 72.7978 6.61203L74.7087 6.56808C74.6508 6.31901 74.5929 6.1432 74.5929 5.85017C74.5929 5.33738 75.0272 4.98575 75.5773 4.98575C76.1709 4.98575 76.4894 5.27878 76.4894 6.06994C76.4894 6.7732 76.3157 6.99296 75.4326 7.18343L74.5639 7.37389C73.1307 7.66692 72.4937 8.50203 72.4937 9.90855C72.4937 11.1685 73.0728 12.4432 74.6798 12.4432C75.6063 12.4432 76.1709 12.0037 76.3591 11.6227L76.4894 11.359ZM76.4894 8.0918V8.94157C76.4894 10.5971 76.0406 10.8023 75.505 10.8023C74.9548 10.8023 74.7811 10.3774 74.7811 9.64482C74.7811 8.89761 74.9693 8.60459 75.7945 8.37017C76.0116 8.31157 76.2867 8.20901 76.4894 8.0918ZM80.8708 5.43994L80.8419 10.6265C80.8274 11.9451 81.6092 12.3846 82.7963 12.3846C83.6794 12.3846 84.7072 12.1062 84.9968 11.9011V10.2455C84.7652 10.3481 84.519 10.4213 84.1571 10.4213C83.7083 10.4213 83.1292 10.3481 83.1292 9.68878V5.43994H84.8665V3.85761H83.1292V1.54273H80.9577L80.8998 3.85761H79.6403V5.43994H80.8708ZM88.0797 12.2674V8.04785C88.0797 6.89041 88.2389 5.85017 88.8469 5.85017C89.2378 5.85017 89.455 6.1139 89.455 6.89041C89.455 7.32994 89.426 7.68157 89.3826 7.97459L91.337 7.60831C91.3949 7.21273 91.4528 6.62669 91.4528 5.86483C91.4528 4.38506 90.9027 3.69646 89.73 3.69646C88.9483 3.69646 88.4126 4.3704 88.1665 5.08831L88.0652 5.38134C88.0652 4.86855 88.0362 3.85761 88.0362 3.85761H85.7923V12.2674H88.0797ZM94.2917 8.51668L98.0557 8.54599C98.0413 8.0332 98.0123 7.52041 97.9544 6.93436C97.7517 4.82459 96.9121 3.5939 95.1024 3.5939C93.0901 3.5939 91.9899 4.9418 91.9899 8.17971C91.9899 11.696 93.2928 12.4139 95.2906 12.4139C97.3319 12.4139 98.0413 11.2858 98.0413 9.83529C98.0413 9.58622 98.0268 9.36645 97.9978 9.20529L96.0145 9.14668L96.0434 9.48366C96.1014 10.2016 95.8842 10.6118 95.2617 10.6118C94.5957 10.6118 94.2773 10.3774 94.2917 8.51668ZM95.8263 7.32994H94.2917C94.3352 5.98204 94.4944 5.27878 95.1024 5.27878C95.696 5.27878 95.7394 5.70366 95.8263 7.32994Z" fill="white"/>
</svg>
