<svg width="962" height="213" viewBox="0 0 962 213" fill="none" xmlns="http://www.w3.org/2000/svg">
<path d="M93.12 181.64L91.7437 181.044L91.7437 181.044L93.12 181.64ZM82.752 196.904L83.8127 197.965L83.8127 197.965L82.752 196.904ZM67.776 206.984L68.3724 208.36L67.776 206.984ZM30.912 206.984L30.3156 208.36L30.912 206.984ZM15.648 196.904L14.564 197.941L14.5871 197.965L14.6112 197.988L15.648 196.904ZM5.568 181.64L6.94433 181.044L6.94433 181.044L5.568 181.64ZM1.824 3.944V2.444H0.324V3.944H1.824ZM31.2 3.944H32.7V2.444H31.2V3.944ZM36.384 176.168L37.4447 175.107L37.4447 175.107L36.384 176.168ZM62.304 176.168L61.2433 175.107L61.2433 175.107L62.304 176.168ZM67.488 3.944V2.444H65.988V3.944H67.488ZM96.864 3.944H98.364V2.444H96.864V3.944ZM95.364 162.92C95.364 169.449 94.1525 175.485 91.7437 181.044L94.4963 182.236C97.0795 176.275 98.364 169.831 98.364 162.92H95.364ZM91.7437 181.044C89.3223 186.631 85.9731 191.562 81.6913 195.843L83.8127 197.965C88.3629 193.414 91.9257 188.169 94.4963 182.236L91.7437 181.044ZM81.6913 195.843C77.6076 199.927 72.7753 203.183 67.1796 205.608L68.3724 208.36C74.2967 205.793 79.4484 202.329 83.8127 197.965L81.6913 195.843ZM67.1796 205.608C61.6154 208.019 55.6752 209.228 49.344 209.228V212.228C56.0688 212.228 62.4166 210.941 68.3724 208.36L67.1796 205.608ZM49.344 209.228C43.0128 209.228 37.0726 208.019 31.5084 205.608L30.3156 208.36C36.2714 210.941 42.6192 212.228 49.344 212.228V209.228ZM31.5084 205.608C25.9069 203.18 20.969 199.918 16.6848 195.82L14.6112 197.988C19.159 202.338 24.3972 205.796 30.3156 208.36L31.5084 205.608ZM16.732 195.867C12.6341 191.583 9.37168 186.645 6.94433 181.044L4.19167 182.236C6.75632 188.155 10.2139 193.393 14.564 197.941L16.732 195.867ZM6.94433 181.044C4.53555 175.485 3.324 169.449 3.324 162.92H0.324C0.324 169.831 1.60846 176.275 4.19167 182.236L6.94433 181.044ZM3.324 162.92V3.944H0.324V162.92H3.324ZM1.824 5.444H31.2V2.444H1.824V5.444ZM29.7 3.944V160.04H32.7V3.944H29.7ZM29.7 160.04C29.7 167.54 31.4734 173.379 35.3233 177.229L37.4447 175.107C34.3826 172.045 32.7 167.132 32.7 160.04H29.7ZM35.3233 177.229C39.079 180.984 43.789 182.852 49.344 182.852V179.852C44.531 179.852 40.601 178.264 37.4447 175.107L35.3233 177.229ZM49.344 182.852C54.899 182.852 59.609 180.984 63.3647 177.229L61.2433 175.107C58.087 178.264 54.157 179.852 49.344 179.852V182.852ZM63.3647 177.229C67.2146 173.379 68.988 167.54 68.988 160.04H65.988C65.988 167.132 64.3054 172.045 61.2433 175.107L63.3647 177.229ZM68.988 160.04V3.944H65.988V160.04H68.988ZM67.488 5.444H96.864V2.444H67.488V5.444ZM95.364 3.944V162.92H98.364V3.944H95.364ZM124.449 3.944V2.444H122.949V3.944H124.449ZM189.825 7.11199L189.337 8.53052L189.337 8.53052L189.825 7.11199ZM206.529 18.344L207.628 17.3233L207.628 17.3233L206.529 18.344ZM216.897 37.352L215.446 37.7337L215.449 37.7434L216.897 37.352ZM218.049 89.768L216.572 89.5073L216.569 89.5253L216.566 89.5433L218.049 89.768ZM211.425 107.624L210.151 106.833L210.145 106.843L210.139 106.852L211.425 107.624ZM195.297 123.464L196.013 124.782L196.027 124.774L196.041 124.766L195.297 123.464ZM153.825 128.936V127.436H152.325V128.936H153.825ZM153.825 209V210.5H155.325V209H153.825ZM124.449 209H122.949V210.5H124.449V209ZM153.825 101.288H152.325V102.788H153.825V101.288ZM181.761 98.696L182.463 100.022L182.463 100.022L181.761 98.696ZM188.961 91.784L190.285 92.4899L190.294 92.4725L190.303 92.4548L188.961 91.784ZM191.553 80.84L190.059 80.7042L190.056 80.738L190.055 80.7719L191.553 80.84ZM191.553 53.192L190.054 53.2572L190.056 53.2925L190.059 53.3278L191.553 53.192ZM188.961 41.96L187.574 42.5311L187.595 42.5818L187.619 42.6308L188.961 41.96ZM182.337 34.472L181.542 35.744L181.571 35.7624L181.602 35.7794L182.337 34.472ZM153.825 31.592V30.092H152.325V31.592H153.825ZM124.449 5.444H168.513V2.444H124.449V5.444ZM168.513 5.444C176.449 5.444 183.383 6.48368 189.337 8.53052L190.313 5.69346C183.979 3.51631 176.705 2.444 168.513 2.444V5.444ZM189.337 8.53052C195.219 10.5524 200.584 14.1459 205.43 19.3647L207.628 17.3233C202.49 11.7901 196.719 7.89561 190.313 5.69346L189.337 8.53052ZM205.43 19.3647C210.249 24.5546 213.587 30.6693 215.446 37.7337L218.348 36.9703C216.367 29.4427 212.793 22.8854 207.628 17.3233L205.43 19.3647ZM215.449 37.7434C217.319 44.6631 218.277 54.2086 218.277 66.44H221.277C221.277 54.0954 220.315 44.2489 218.345 36.9606L215.449 37.7434ZM218.277 66.44C218.277 75.4056 217.704 83.0898 216.572 89.5073L219.526 90.0287C220.698 83.3901 221.277 75.5224 221.277 66.44H218.277ZM216.566 89.5433C215.637 95.6737 213.502 101.434 210.151 106.833L212.699 108.415C216.26 102.678 218.541 96.5343 219.532 89.9927L216.566 89.5433ZM210.139 106.852C206.237 113.355 201.047 118.451 194.553 122.162L196.041 124.766C202.987 120.797 208.549 115.333 212.711 108.396L210.139 106.852ZM194.581 122.146C188.155 125.634 179.596 127.436 168.801 127.436V130.436C179.894 130.436 188.999 128.59 196.013 124.782L194.581 122.146ZM168.801 127.436H153.825V130.436H168.801V127.436ZM152.325 128.936V209H155.325V128.936H152.325ZM153.825 207.5H124.449V210.5H153.825V207.5ZM125.949 209V3.944H122.949V209H125.949ZM153.825 102.788H167.937V99.788H153.825V102.788ZM167.937 102.788C174 102.788 178.889 101.914 182.463 100.022L181.059 97.3703C178.105 98.9344 173.778 99.788 167.937 99.788V102.788ZM182.463 100.022C185.955 98.1727 188.59 95.6676 190.285 92.4899L187.637 91.0781C186.26 93.6604 184.095 95.7633 181.059 97.3703L182.463 100.022ZM190.303 92.4548C191.952 89.157 192.852 85.2946 193.051 80.9081L190.055 80.7719C189.87 84.8334 189.042 88.267 187.619 91.1132L190.303 92.4548ZM193.047 80.9758C193.436 76.6981 193.629 71.9478 193.629 66.728H190.629C190.629 71.8762 190.438 76.5339 190.059 80.7042L193.047 80.9758ZM193.629 66.728C193.629 61.8884 193.435 57.3308 193.047 53.0562L190.059 53.3278C190.439 57.5012 190.629 61.9675 190.629 66.728H193.629ZM193.052 53.1268C192.853 48.5582 191.956 44.5956 190.303 41.2892L187.619 42.6308C189.038 45.4683 189.869 48.9938 190.054 53.2572L193.052 53.1268ZM190.348 41.3889C188.876 37.8137 186.439 35.0581 183.072 33.1646L181.602 35.7794C184.379 37.3419 186.358 39.5783 187.574 42.5311L190.348 41.3889ZM183.132 33.2C179.72 31.0673 174.979 30.092 169.089 30.092V33.092C174.719 33.092 178.81 34.0367 181.542 35.744L183.132 33.2ZM169.089 30.092H153.825V33.092H169.089V30.092ZM152.325 31.592V101.288H155.325V31.592H152.325ZM336.77 62.984V64.484H338.27V62.984H336.77ZM307.394 62.984H305.894V64.484H307.394V62.984ZM302.498 39.08L301.221 39.8661L301.239 39.8952L301.258 39.9235L302.498 39.08ZM276.578 33.896L275.834 32.5936L275.813 32.6057L275.792 32.6185L276.578 33.896ZM270.53 39.944L269.253 39.1579L269.243 39.1729L269.235 39.1882L270.53 39.944ZM267.65 48.296L269.125 48.5724L269.126 48.5646L269.127 48.5567L267.65 48.296ZM267.074 68.456L265.578 68.5558L265.581 68.6122L265.589 68.6681L267.074 68.456ZM269.378 75.656L268.061 76.3743L268.076 76.4013L268.092 76.4277L269.378 75.656ZM274.274 80.84L273.392 82.0531L273.417 82.0711L273.442 82.0881L274.274 80.84ZM283.49 85.448L282.933 86.8407L282.936 86.8419L283.49 85.448ZM305.954 94.376L305.4 95.7699L305.409 95.7736L305.419 95.7771L305.954 94.376ZM321.794 103.304L320.818 104.443L320.834 104.457L320.85 104.47L321.794 103.304ZM331.01 115.112L329.647 115.737L329.663 115.772L329.68 115.806L331.01 115.112ZM335.618 130.664L334.131 130.856L334.131 130.862L335.618 130.664ZM334.178 174.728L335.638 175.074L335.64 175.065L334.178 174.728ZM325.538 193.736L324.338 192.836L324.333 192.843L325.538 193.736ZM309.986 206.12L310.625 207.477L310.625 207.477L309.986 206.12ZM266.21 206.984L265.646 208.374L265.646 208.374L266.21 206.984ZM250.37 196.904L249.31 197.965L249.321 197.976L249.333 197.988L250.37 196.904ZM239.714 181.352L238.331 181.932L238.339 181.951L238.347 181.969L239.714 181.352ZM235.97 151.112V149.612H234.47V151.112H235.97ZM265.346 151.112H266.846V149.612H265.346V151.112ZM269.954 175.016L268.723 175.873L268.744 175.903L268.767 175.933L269.954 175.016ZM297.602 179.336L298.273 180.678L298.291 180.669L298.308 180.66L297.602 179.336ZM303.938 173.288L302.636 172.544L302.627 172.56L302.618 172.577L303.938 173.288ZM306.818 137.576L308.309 137.41L308.309 137.41L306.818 137.576ZM304.226 129.224L302.909 129.942L302.934 129.987L302.961 130.029L304.226 129.224ZM299.042 124.04L298.237 125.305L298.261 125.321L298.286 125.336L299.042 124.04ZM290.402 119.72L290.984 118.337L290.972 118.333L290.402 119.72ZM269.378 111.08L269.948 109.693L269.946 109.692L269.378 111.08ZM243.746 90.632L242.399 91.2908L242.408 91.309L242.417 91.3269L243.746 90.632ZM240.578 36.488L242.013 36.9263L242.013 36.9263L240.578 36.488ZM249.794 18.632L248.649 17.6631L248.638 17.6762L248.627 17.6895L249.794 18.632ZM265.634 6.82399L266.255 8.18954L266.272 8.18184L266.289 8.17371L265.634 6.82399ZM307.682 6.24798L307.065 7.61504L307.073 7.61868L307.081 7.62222L307.682 6.24798ZM323.234 16.904L322.15 17.9408L322.162 17.9529L322.174 17.9646L323.234 16.904ZM333.314 31.88L331.928 32.4535L331.932 32.4622L331.936 32.4709L333.314 31.88ZM336.77 61.484H307.394V64.484H336.77V61.484ZM308.894 62.984V56.36H305.894V62.984H308.894ZM308.894 56.36C308.894 49.388 307.197 43.3228 303.739 38.2365L301.258 39.9235C304.327 44.4372 305.894 49.892 305.894 56.36H308.894ZM303.776 38.2938C300.354 32.7337 294.502 30.092 286.658 30.092V33.092C293.79 33.092 298.498 35.4422 301.221 39.8661L303.776 38.2938ZM286.658 30.092C282.442 30.092 278.807 30.8947 275.834 32.5936L277.322 35.1984C279.725 33.8253 282.81 33.092 286.658 33.092V30.092ZM275.792 32.6185C273.096 34.2776 270.912 36.4619 269.253 39.1579L271.808 40.7301C273.221 38.4341 275.068 36.5864 277.364 35.1735L275.792 32.6185ZM269.235 39.1882C267.783 41.6773 266.773 44.6376 266.173 48.0353L269.127 48.5567C269.68 45.4264 270.59 42.8187 271.826 40.6998L269.235 39.1882ZM266.176 48.0196C265.581 51.1917 265.286 54.5489 265.286 58.088H268.286C268.286 54.7151 268.567 51.5443 269.125 48.5724L266.176 48.0196ZM265.286 58.088C265.286 62.1413 265.383 65.6325 265.578 68.5558L268.571 68.3562C268.382 65.5195 268.286 62.0987 268.286 58.088H265.286ZM265.589 68.6681C265.995 71.5109 266.813 74.0861 268.061 76.3743L270.695 74.9377C269.639 73.0019 268.921 70.7771 268.559 68.2439L265.589 68.6681ZM268.092 76.4277C269.363 78.5468 271.144 80.4181 273.392 82.0531L275.157 79.6269C273.181 78.1899 271.697 76.6052 270.664 74.8842L268.092 76.4277ZM273.442 82.0881C275.864 83.7024 279.039 85.2831 282.933 86.8407L284.047 84.0553C280.261 82.5409 277.293 81.0496 275.106 79.5919L273.442 82.0881ZM282.936 86.8419L305.4 95.7699L306.508 92.982L284.044 84.054L282.936 86.8419ZM305.419 95.7771C311.834 98.2299 316.951 101.128 320.818 104.443L322.77 102.165C318.574 98.568 313.131 95.5141 306.49 92.9749L305.419 95.7771ZM320.85 104.47C324.707 107.592 327.633 111.344 329.647 115.737L332.374 114.487C330.163 109.664 326.945 105.544 322.738 102.138L320.85 104.47ZM329.68 115.806C331.888 120.037 333.381 125.044 334.131 130.856L337.106 130.472C336.32 124.38 334.741 119.019 332.34 114.418L329.68 115.806ZM334.131 130.862C334.889 136.541 335.27 143.096 335.27 150.536H338.27C338.27 143 337.884 136.307 337.105 130.466L334.131 130.862ZM335.27 150.536C335.27 159.076 334.416 167.026 332.717 174.391L335.64 175.065C337.396 167.454 338.27 159.276 338.27 150.536H335.27ZM332.719 174.382C331.033 181.501 328.233 187.643 324.338 192.836L326.738 194.636C330.908 189.077 333.868 182.547 335.638 175.074L332.719 174.382ZM324.333 192.843C320.657 197.805 315.678 201.784 309.348 204.763L310.625 207.477C317.35 204.312 322.739 200.035 326.744 194.629L324.333 192.843ZM309.348 204.763C303.07 207.717 295.334 209.228 286.082 209.228V212.228C295.647 212.228 303.846 210.667 310.625 207.477L309.348 204.763ZM286.082 209.228C279.158 209.228 272.727 208.012 266.775 205.594L265.646 208.374C271.981 210.948 278.799 212.228 286.082 212.228V209.228ZM266.775 205.594C260.791 203.163 255.675 199.902 251.407 195.82L249.333 197.988C253.897 202.354 259.341 205.813 265.646 208.374L266.775 205.594ZM251.431 195.843C247.149 191.561 243.698 186.529 241.081 180.735L238.347 181.969C241.106 188.079 244.76 193.415 249.31 197.965L251.431 195.843ZM241.098 180.772C238.684 175.016 237.47 168.783 237.47 162.056H234.47C234.47 169.153 235.753 175.784 238.331 181.932L241.098 180.772ZM237.47 162.056V151.112H234.47V162.056H237.47ZM235.97 152.612H265.346V149.612H235.97V152.612ZM263.846 151.112V160.328H266.846V151.112H263.846ZM263.846 160.328C263.846 166.01 265.476 171.205 268.723 175.873L271.186 174.159C268.288 169.995 266.846 165.398 266.846 160.328H263.846ZM268.767 175.933C272.418 180.657 278.328 182.852 286.082 182.852V179.852C278.861 179.852 274.019 177.823 271.141 174.099L268.767 175.933ZM286.082 182.852C291.172 182.852 295.283 182.173 298.273 180.678L296.931 177.994C294.546 179.187 290.977 179.852 286.082 179.852V182.852ZM298.308 180.66C301.408 179.006 303.755 176.793 305.259 173.999L302.618 172.577C301.434 174.775 299.556 176.594 296.896 178.012L298.308 180.66ZM305.241 174.032C306.903 171.122 307.911 167.645 308.311 163.645L305.326 163.347C304.958 167.027 304.045 170.078 302.636 172.544L305.241 174.032ZM308.311 163.645C308.701 159.747 308.894 155.473 308.894 150.824H305.894C305.894 155.391 305.704 159.565 305.326 163.347L308.311 163.645ZM308.894 150.824C308.894 145.419 308.702 140.942 308.309 137.41L305.327 137.742C305.703 141.122 305.894 145.477 305.894 150.824H308.894ZM308.309 137.41C307.909 133.81 306.997 130.784 305.492 128.419L302.961 130.029C304.144 131.888 304.959 134.43 305.327 137.742L308.309 137.41ZM305.543 128.506C304.246 126.128 302.312 124.211 299.798 122.744L298.286 125.336C300.381 126.557 301.902 128.096 302.909 129.942L305.543 128.506ZM299.848 122.775C297.636 121.367 294.671 119.89 290.984 118.338L289.82 121.102C293.43 122.622 296.224 124.025 298.237 125.305L299.848 122.775ZM290.972 118.333L269.948 109.693L268.808 112.467L289.832 121.107L290.972 118.333ZM269.946 109.692C257.462 104.584 249.269 97.9591 245.076 89.9371L242.417 91.3269C247.056 100.201 255.951 107.208 268.81 112.468L269.946 109.692ZM245.094 89.9732C240.998 81.5955 238.91 71.0852 238.91 58.376H235.91C235.91 71.3948 238.046 82.3885 242.399 91.2908L245.094 89.9732ZM238.91 58.376C238.91 50.8352 239.947 43.6876 242.013 36.9263L239.144 36.0497C236.986 43.1124 235.91 50.5568 235.91 58.376H238.91ZM242.013 36.9263C244.076 30.1749 247.064 24.3994 250.961 19.5745L248.627 17.6895C244.46 22.8486 241.305 28.9771 239.144 36.0497L242.013 36.9263ZM250.939 19.6009C255.011 14.789 260.108 10.9838 266.255 8.18954L265.014 5.45844C258.489 8.42422 253.026 12.4909 248.649 17.6631L250.939 19.6009ZM266.289 8.17371C272.384 5.21842 279.544 3.71598 287.81 3.71598V0.715984C279.18 0.715984 271.557 2.28555 264.98 5.47427L266.289 8.17371ZM287.81 3.71598C294.918 3.71598 301.329 5.02442 307.065 7.61504L308.3 4.88093C302.132 2.09555 295.294 0.715984 287.81 0.715984V3.71598ZM307.081 7.62222C313.061 10.2385 318.076 13.6815 322.15 17.9408L324.318 15.8671C319.944 11.2945 314.591 7.63343 308.283 4.87375L307.081 7.62222ZM322.174 17.9646C326.455 22.2464 329.702 27.0743 331.928 32.4535L334.7 31.3065C332.318 25.5496 328.845 20.3936 324.295 15.8433L322.174 17.9646ZM331.936 32.4709C334.161 37.6631 335.27 43.0303 335.27 48.584H338.27C338.27 42.6177 337.076 36.8489 334.693 31.2891L331.936 32.4709ZM335.27 48.584V62.984H338.27V48.584H335.27ZM378.026 31.592H379.526V30.092H378.026V31.592ZM344.042 31.592H342.542V33.092H344.042V31.592ZM344.042 3.944V2.444H342.542V3.944H344.042ZM441.386 3.944H442.886V2.444H441.386V3.944ZM441.386 31.592V33.092H442.886V31.592H441.386ZM407.402 31.592V30.092H405.902V31.592H407.402ZM407.402 209V210.5H408.902V209H407.402ZM378.026 209H376.526V210.5H378.026V209ZM378.026 30.092H344.042V33.092H378.026V30.092ZM345.542 31.592V3.944H342.542V31.592H345.542ZM344.042 5.444H441.386V2.444H344.042V5.444ZM439.886 3.944V31.592H442.886V3.944H439.886ZM441.386 30.092H407.402V33.092H441.386V30.092ZM405.902 31.592V209H408.902V31.592H405.902ZM407.402 207.5H378.026V210.5H407.402V207.5ZM379.526 209V31.592H376.526V209H379.526ZM483.533 62.984L485.006 62.6986L484.77 61.484H483.533V62.984ZM482.957 62.984V61.484H481.72L481.485 62.6986L482.957 62.984ZM468.557 137.288L467.085 137.003L466.739 138.788H468.557V137.288ZM497.933 137.288V138.788H499.752L499.406 137.003L497.933 137.288ZM471.149 3.944V2.444H469.947L469.685 3.61708L471.149 3.944ZM495.629 3.944L497.093 3.61708L496.831 2.444H495.629V3.944ZM541.421 209V210.5H543.293L542.885 208.673L541.421 209ZM512.045 209L510.573 209.289L510.811 210.5H512.045V209ZM503.405 164.936L504.877 164.647L504.64 163.436H503.405V164.936ZM463.373 164.936V163.436H462.139L461.901 164.647L463.373 164.936ZM454.733 209V210.5H455.968L456.205 209.289L454.733 209ZM425.357 209L423.893 208.673L423.485 210.5H425.357V209ZM483.533 61.484H482.957V64.484H483.533V61.484ZM481.485 62.6986L467.085 137.003L470.03 137.573L484.43 63.2694L481.485 62.6986ZM468.557 138.788H497.933V135.788H468.557V138.788ZM499.406 137.003L485.006 62.6986L482.061 63.2694L496.461 137.573L499.406 137.003ZM471.149 5.444H495.629V2.444H471.149V5.444ZM494.165 4.27092L539.957 209.327L542.885 208.673L497.093 3.61708L494.165 4.27092ZM541.421 207.5H512.045V210.5H541.421V207.5ZM513.517 208.711L504.877 164.647L501.933 165.225L510.573 209.289L513.517 208.711ZM503.405 163.436H463.373V166.436H503.405V163.436ZM461.901 164.647L453.261 208.711L456.205 209.289L464.845 165.225L461.901 164.647ZM454.733 207.5H425.357V210.5H454.733V207.5ZM426.821 209.327L472.613 4.27092L469.685 3.61708L423.893 208.673L426.821 209.327ZM585.263 95.528H583.763V97.028H585.263V95.528ZM614.351 93.512L614.952 94.8862L614.987 94.8708L615.021 94.8536L614.351 93.512ZM621.263 87.176L620.001 86.3649L619.98 86.3978L619.96 86.4318L621.263 87.176ZM624.719 77.384L626.202 77.6065L626.203 77.5961L624.719 77.384ZM624.719 50.024L623.234 50.2361L623.235 50.2465L624.719 50.024ZM620.975 39.944L619.688 40.7157L619.719 40.7671L619.754 40.8159L620.975 39.944ZM613.487 33.608L612.915 34.995L612.915 34.995L613.487 33.608ZM585.263 31.592V30.092H583.763V31.592H585.263ZM555.887 3.944V2.444H554.387V3.944H555.887ZM649.199 94.952L647.828 94.3428L647.825 94.35L647.821 94.3573L649.199 94.952ZM629.615 115.4L628.891 114.086L627.791 114.692L628.194 115.881L629.615 115.4ZM661.295 209V210.5H663.386L662.715 208.519L661.295 209ZM630.191 209L628.759 209.447L629.088 210.5H630.191V209ZM602.831 121.448L604.262 121.001L603.933 119.948H602.831V121.448ZM585.263 121.448V119.948H583.763V121.448H585.263ZM585.263 209V210.5H586.763V209H585.263ZM555.887 209H554.387V210.5H555.887V209ZM585.263 97.028H601.967V94.028H585.263V97.028ZM601.967 97.028C607.256 97.028 611.615 96.3459 614.952 94.8862L613.749 92.1378C610.942 93.366 607.045 94.028 601.967 94.028V97.028ZM615.021 94.8536C618.328 93.2003 620.866 90.8931 622.565 87.9202L619.96 86.4318C618.587 88.8349 616.517 90.7517 613.68 92.1704L615.021 94.8536ZM622.524 87.9871C624.389 85.0867 625.601 81.612 626.202 77.6065L623.235 77.1615C622.684 80.836 621.592 83.8893 620.001 86.3649L622.524 87.9871ZM626.203 77.5961C626.792 73.4779 627.083 68.7968 627.083 63.56H624.083C624.083 68.6911 623.797 73.226 623.234 77.1719L626.203 77.5961ZM627.083 63.56C627.083 58.3245 626.792 53.7348 626.202 49.8015L623.235 50.2465C623.797 53.9931 624.083 58.4275 624.083 63.56H627.083ZM626.203 49.8119C625.601 45.5965 624.284 41.9961 622.195 39.0721L619.754 40.8159C621.505 43.2679 622.684 46.3875 623.234 50.2361L626.203 49.8119ZM622.261 39.1723C620.358 36.0009 617.604 33.6811 614.058 32.221L612.915 34.995C615.897 36.2228 618.135 38.1271 619.688 40.7157L622.261 39.1723ZM614.058 32.221C610.543 30.7739 606.006 30.092 600.527 30.092V33.092C605.799 33.092 609.902 33.7541 612.915 34.995L614.058 32.221ZM600.527 30.092H585.263V33.092H600.527V30.092ZM583.763 31.592V95.528H586.763V31.592H583.763ZM555.887 5.444H603.119V2.444H555.887V5.444ZM603.119 5.444C620.104 5.444 632.588 10.3641 640.862 19.9709C649.173 29.6206 653.459 44.2529 653.459 64.136H656.459C656.459 43.8911 652.104 28.4274 643.135 18.0131C634.129 7.55594 620.693 2.444 603.119 2.444V5.444ZM653.459 64.136C653.459 75.8827 651.564 85.9374 647.828 94.3428L650.569 95.5612C654.514 86.6866 656.459 76.1973 656.459 64.136H653.459ZM647.821 94.3573C644.327 102.451 638.058 109.035 628.891 114.086L630.338 116.714C639.987 111.397 646.774 104.349 650.576 95.5466L647.821 94.3573ZM628.194 115.881L659.874 209.481L662.715 208.519L631.035 114.919L628.194 115.881ZM661.295 207.5H630.191V210.5H661.295V207.5ZM631.622 208.553L604.262 121.001L601.399 121.895L628.759 209.447L631.622 208.553ZM602.831 119.948H585.263V122.948H602.831V119.948ZM583.763 121.448V209H586.763V121.448H583.763ZM585.263 207.5H555.887V210.5H585.263V207.5ZM557.387 209V3.944H554.387V209H557.387ZM692.745 31.592H694.245V30.092H692.745V31.592ZM658.761 31.592H657.261V33.092H658.761V31.592ZM658.761 3.944V2.444H657.261V3.944H658.761ZM756.105 3.944H757.605V2.444H756.105V3.944ZM756.105 31.592V33.092H757.605V31.592H756.105ZM722.121 31.592V30.092H720.621V31.592H722.121ZM722.121 209V210.5H723.621V209H722.121ZM692.745 209H691.245V210.5H692.745V209ZM692.745 30.092H658.761V33.092H692.745V30.092ZM660.261 31.592V3.944H657.261V31.592H660.261ZM658.761 5.444H756.105V2.444H658.761V5.444ZM754.605 3.944V31.592H757.605V3.944H754.605ZM756.105 30.092H722.121V33.092H756.105V30.092ZM720.621 31.592V209H723.621V31.592H720.621ZM722.121 207.5H692.745V210.5H722.121V207.5ZM694.245 209V31.592H691.245V209H694.245ZM765.042 181.352L763.717 180.649L763.542 180.979V181.352H765.042ZM818.034 81.416L816.713 80.7048L816.709 80.7133L818.034 81.416ZM822.642 68.456L824.134 68.613L824.135 68.6052L822.642 68.456ZM822.93 46.568L821.433 46.6678L821.434 46.6749L822.93 46.568ZM821.202 39.08L819.792 39.5926L819.812 39.6475L819.836 39.7007L821.202 39.08ZM817.17 33.896L816.233 35.0673L816.27 35.0973L816.31 35.1248L817.17 33.896ZM798.162 35.336L797.141 34.2368L797.121 34.2557L797.101 34.2753L798.162 35.336ZM794.418 62.984V64.484H795.918V62.984H794.418ZM765.042 62.984H763.542V64.484H765.042V62.984ZM768.498 29.576L769.877 30.1669L769.877 30.1669L768.498 29.576ZM777.714 15.464L776.653 14.4033L776.64 14.4163L776.628 14.4295L777.714 15.464ZM791.826 5.95999L792.417 7.3387L792.437 7.32991L792.458 7.3205L791.826 5.95999ZM828.69 6.536L827.982 7.85822L828.009 7.87311L828.038 7.88682L828.69 6.536ZM842.226 17.768L841.009 18.6444L841.02 18.6602L841.032 18.6756L842.226 17.768ZM850.002 34.184L848.547 34.5478L848.552 34.569L848.558 34.5901L850.002 34.184ZM852.306 66.44L853.803 66.5281L853.804 66.5232L852.306 66.44ZM851.154 75.944L849.68 75.6676L849.68 75.6676L851.154 75.944ZM848.274 85.16L849.648 85.7612L849.648 85.7612L848.274 85.16ZM842.802 96.392L841.472 95.6981L841.471 95.701L842.802 96.392ZM799.602 179.624L798.271 178.933L797.133 181.124H799.602V179.624ZM852.594 179.624H854.094V178.124H852.594V179.624ZM852.594 209V210.5H854.094V209H852.594ZM765.042 209H763.542V210.5H765.042V209ZM766.367 182.055L819.359 82.1187L816.709 80.7133L763.717 180.649L766.367 182.055ZM819.355 82.1271C822.09 77.0472 823.721 72.5315 824.134 68.613L821.15 68.299C820.795 71.6765 819.354 75.8008 816.713 80.7048L819.355 82.1271ZM824.135 68.6052C824.525 64.6993 824.718 59.9421 824.718 54.344H821.718C821.718 59.8819 821.527 64.5327 821.149 68.3067L824.135 68.6052ZM824.718 54.344C824.718 51.8097 824.621 49.1819 824.426 46.4611L821.434 46.6749C821.623 49.3301 821.718 51.8863 821.718 54.344H824.718ZM824.427 46.4682C824.225 43.4504 823.618 40.7703 822.568 38.4593L819.836 39.7007C820.706 41.6137 821.251 43.9255 821.433 46.6678L824.427 46.4682ZM822.612 38.5674C821.734 36.153 820.191 34.1798 818.03 32.6671L816.31 35.1248C817.989 36.3002 819.134 37.783 819.792 39.5926L822.612 38.5674ZM818.107 32.7247C815.819 30.8944 812.648 30.092 808.818 30.092V33.092C812.284 33.092 814.681 33.8255 816.233 35.0673L818.107 32.7247ZM808.818 30.092C804.105 30.092 800.161 31.4325 797.141 34.2368L799.183 36.4352C801.539 34.2474 804.699 33.092 808.818 33.092V30.092ZM797.101 34.2753C794.235 37.1418 792.918 41.229 792.918 46.28H795.918C795.918 41.731 797.097 38.5222 799.223 36.3966L797.101 34.2753ZM792.918 46.28V62.984H795.918V46.28H792.918ZM794.418 61.484H765.042V64.484H794.418V61.484ZM766.542 62.984V46.856H763.542V62.984H766.542ZM766.542 46.856C766.542 40.9047 767.657 35.3468 769.877 30.1669L767.119 28.9851C764.731 34.5572 763.542 40.5193 763.542 46.856H766.542ZM769.877 30.1669C772.114 24.9466 775.089 20.3948 778.8 16.4985L776.628 14.4295C772.659 18.5972 769.49 23.4534 767.119 28.9851L769.877 30.1669ZM778.775 16.5246C782.668 12.6311 787.212 9.56951 792.417 7.3387L791.235 4.58127C785.688 6.95847 780.824 10.2329 776.653 14.4033L778.775 16.5246ZM792.458 7.3205C797.628 4.91977 803.172 3.71598 809.106 3.71598V0.715984C802.752 0.715984 796.776 2.0082 791.194 4.59947L792.458 7.3205ZM809.106 3.71598C816.602 3.71598 822.873 5.12134 827.982 7.85822L829.398 5.21378C823.755 2.19063 816.97 0.715984 809.106 0.715984V3.71598ZM828.038 7.88682C833.391 10.4713 837.705 14.0565 841.009 18.6444L843.443 16.8915C839.835 11.8795 835.125 7.97667 829.342 5.18517L828.038 7.88682ZM841.032 18.6756C844.551 23.3058 847.058 28.5907 848.547 34.5478L851.457 33.8202C849.874 27.4892 847.197 21.8302 843.42 16.8604L841.032 18.6756ZM848.558 34.5901C850.246 40.5915 851.094 46.982 851.094 53.768H854.094C854.094 46.73 853.214 40.0645 851.446 33.7779L848.558 34.5901ZM851.094 53.768C851.094 58.7432 850.998 62.9376 850.808 66.3568L853.804 66.5232C853.998 63.0304 854.094 58.7768 854.094 53.768H851.094ZM850.809 66.3519C850.62 69.5556 850.244 72.6606 849.68 75.6676L852.628 76.2204C853.217 73.0834 853.608 69.8524 853.803 66.5281L850.809 66.3519ZM849.68 75.6676C849.126 78.6201 848.202 81.5834 846.9 84.5588L849.648 85.7612C851.035 82.5926 852.03 79.4119 852.628 76.2204L849.68 75.6676ZM846.9 84.5588C845.574 87.5883 843.767 91.2995 841.472 95.6981L844.132 97.0858C846.445 92.6525 848.286 88.8757 849.648 85.7612L846.9 84.5588ZM841.471 95.701L798.271 178.933L800.933 180.315L844.133 97.083L841.471 95.701ZM799.602 181.124H852.594V178.124H799.602V181.124ZM851.094 179.624V209H854.094V179.624H851.094ZM852.594 207.5H765.042V210.5H852.594V207.5ZM766.542 209V181.352H763.542V209H766.542ZM875.654 27.848L874.294 27.2163L874.284 27.2366L874.276 27.2571L875.654 27.848ZM885.446 14.024L884.412 12.9378L884.412 12.9378L885.446 14.024ZM899.27 5.384L899.791 6.79062L899.805 6.78551L899.819 6.78012L899.27 5.384ZM932.39 5.384L931.824 6.77313L931.855 6.78554L931.886 6.79661L932.39 5.384ZM946.502 14.024L947.537 12.9378L947.537 12.9378L946.502 14.024ZM956.006 27.848L954.628 28.4389L954.636 28.4594L954.646 28.4797L956.006 27.848ZM956.006 185.096L954.646 184.464L954.636 184.485L954.628 184.505L956.006 185.096ZM946.502 198.92L947.537 200.006L947.537 200.006L946.502 198.92ZM932.39 207.848L932.911 209.255L932.925 209.25L932.939 209.244L932.39 207.848ZM899.27 207.848L898.704 209.237L898.735 209.25L898.766 209.261L899.27 207.848ZM885.446 198.92L884.412 200.006L885.446 198.92ZM875.654 185.096L874.276 185.687L874.284 185.707L874.294 185.728L875.654 185.096ZM905.606 177.32L904.51 178.343L904.527 178.362L904.546 178.381L905.606 177.32ZM926.342 177.32L927.403 178.381L927.421 178.362L927.439 178.343L926.342 177.32ZM926.342 35.912L925.246 36.9355L925.263 36.9544L925.282 36.9727L926.342 35.912ZM905.606 35.912L906.667 36.9727L906.685 36.9544L906.703 36.9355L905.606 35.912ZM873.698 46.28C873.698 39.5348 874.822 33.5974 877.033 28.4389L874.276 27.2571C871.878 32.8506 870.698 39.2012 870.698 46.28H873.698ZM877.015 28.4797C879.437 23.2632 882.594 18.8123 886.481 15.1102L884.412 12.9378C880.235 16.9157 876.864 21.6808 874.294 27.2163L877.015 28.4797ZM886.481 15.1102C890.366 11.4097 894.8 8.63929 899.791 6.79062L898.749 3.97737C893.373 5.9687 888.59 8.95824 884.412 12.9378L886.481 15.1102ZM899.819 6.78012C905.021 4.73656 910.403 3.71598 915.974 3.71598V0.715984C910.026 0.715984 904.272 1.80742 898.722 3.98787L899.819 6.78012ZM915.974 3.71598C921.546 3.71598 926.825 4.73647 931.824 6.77313L932.956 3.99486C927.587 1.8075 921.923 0.715984 915.974 0.715984V3.71598ZM931.886 6.79661C937.069 8.64789 941.592 11.4186 945.468 15.1102L947.537 12.9378C943.349 8.94942 938.463 5.9601 932.895 3.97138L931.886 6.79661ZM945.468 15.1102C949.345 18.8031 952.399 23.24 954.628 28.4389L957.385 27.2571C955.005 21.704 951.723 16.9249 947.537 12.9378L945.468 15.1102ZM954.646 28.4797C957.036 33.6275 958.25 39.5502 958.25 46.28H961.25C961.25 39.1858 959.969 32.8205 957.367 27.2163L954.646 28.4797ZM958.25 46.28V166.664H961.25V46.28H958.25ZM958.25 166.664C958.25 173.394 957.036 179.316 954.646 184.464L957.367 185.728C959.969 180.124 961.25 173.758 961.25 166.664H958.25ZM954.628 184.505C952.399 189.704 949.345 194.141 945.468 197.834L947.537 200.006C951.723 196.019 955.005 191.24 957.385 185.687L954.628 184.505ZM945.468 197.834C941.581 201.535 937.044 204.408 931.842 206.452L932.939 209.244C938.488 207.064 943.359 203.985 947.537 200.006L945.468 197.834ZM931.869 206.441C926.859 208.297 921.564 209.228 915.974 209.228V212.228C921.905 212.228 927.554 211.239 932.911 209.255L931.869 206.441ZM915.974 209.228C910.385 209.228 904.987 208.297 899.775 206.435L898.766 209.261C904.305 211.239 910.044 212.228 915.974 212.228V209.228ZM899.836 206.459C894.825 204.417 890.376 201.544 886.481 197.834L884.412 200.006C888.58 203.976 893.348 207.055 898.704 209.237L899.836 206.459ZM886.481 197.834C882.594 194.132 879.437 189.681 877.015 184.464L874.294 185.728C876.864 191.263 880.235 196.028 884.412 200.006L886.481 197.834ZM877.033 184.505C874.822 179.347 873.698 173.409 873.698 166.664H870.698C870.698 173.743 871.878 180.093 874.276 185.687L877.033 184.505ZM873.698 166.664V46.28H870.698V166.664H873.698ZM900.074 166.664C900.074 171.238 901.543 175.165 904.51 178.343L906.703 176.297C904.294 173.715 903.074 170.538 903.074 166.664H900.074ZM904.546 178.381C907.547 181.382 911.401 182.852 915.974 182.852V179.852C912.1 179.852 909.041 178.634 906.667 176.259L904.546 178.381ZM915.974 182.852C920.548 182.852 924.401 181.382 927.403 178.381L925.282 176.259C922.907 178.634 919.849 179.852 915.974 179.852V182.852ZM927.439 178.343C930.406 175.165 931.874 171.238 931.874 166.664H928.874C928.874 170.538 927.655 173.715 925.246 176.297L927.439 178.343ZM931.874 166.664V46.28H928.874V166.664H931.874ZM931.874 46.28C931.874 41.7066 930.405 37.8531 927.403 34.8513L925.282 36.9727C927.656 39.3469 928.874 42.4054 928.874 46.28H931.874ZM927.439 34.8885C924.445 31.6808 920.58 30.092 915.974 30.092V33.092C919.816 33.092 922.863 34.3831 925.246 36.9355L927.439 34.8885ZM915.974 30.092C911.368 30.092 907.503 31.6808 904.51 34.8885L906.703 36.9355C909.085 34.3831 912.132 33.092 915.974 33.092V30.092ZM904.546 34.8513C901.544 37.8531 900.074 41.7066 900.074 46.28H903.074C903.074 42.4054 904.293 39.3469 906.667 36.9727L904.546 34.8513ZM900.074 46.28V166.664H903.074V46.28H900.074Z" fill="black"/>
</svg>
