<svg width="157" height="406" viewBox="0 0 157 406" fill="none" xmlns="http://www.w3.org/2000/svg">
<g clip-path="url(#clip0)">
<path d="M56.1952 163.372L56.3651 163.784L56.3682 163.782L56.3714 163.781L56.1952 163.372ZM62.4746 158.885L62.1423 158.589L62.4746 158.885ZM66.3833 151.898L65.9606 151.759L66.3833 151.898ZM67.7289 87.2795V86.8343H67.2839V87.2795H67.7289ZM86.9519 87.2795H87.3969V86.8343H86.9519V87.2795ZM84.1966 158.244L83.7819 158.083L83.781 158.085L84.1966 158.244ZM76.4433 170.424L76.1265 170.111L76.4433 170.424ZM64.1406 178.437L63.976 178.024L64.1406 178.437ZM31.3975 178.437L31.2329 178.851L31.2341 178.851L31.3975 178.437ZM19.0948 170.424L19.4114 170.111L19.0948 170.424ZM11.2775 158.244L10.8613 158.402L10.863 158.406L11.2775 158.244ZM8.58627 87.2795V86.8343H8.14129V87.2795H8.58627ZM27.8092 87.2795H28.2542V86.8343H27.8092V87.2795ZM33.0635 158.885L33.3961 158.589L33.0635 158.885ZM39.343 163.372L39.1669 163.781L39.1699 163.782L39.1729 163.784L39.343 163.372ZM47.8011 165.356C50.9685 165.356 53.8257 164.835 56.3651 163.784L56.0252 162.961C53.6094 163.961 50.8706 164.466 47.8011 164.466V165.356ZM56.3714 163.781C58.9055 162.688 61.053 161.155 62.807 159.181L62.1423 158.589C60.4789 160.461 58.4401 161.92 56.0189 162.964L56.3714 163.781ZM62.807 159.181C64.5611 157.207 65.8925 154.822 66.806 152.036L65.9606 151.759C65.08 154.443 63.8056 156.717 62.1423 158.589L62.807 159.181ZM66.806 152.036C67.7205 149.249 68.1739 146.124 68.1739 142.666H67.2839C67.2839 146.047 66.8403 149.076 65.9606 151.759L66.806 152.036ZM68.1739 142.666V87.2795H67.2839V142.666H68.1739ZM67.7289 87.7246H86.9519V86.8343H67.7289V87.7246ZM86.5069 87.2795V142.666H87.3969V87.2795H86.5069ZM86.5069 142.666C86.5069 148.259 85.5965 153.396 83.7819 158.083L84.6113 158.405C86.4704 153.604 87.3969 148.357 87.3969 142.666H86.5069ZM83.781 158.085C82.0078 162.731 79.4558 166.738 76.1265 170.111L76.7602 170.737C80.1802 167.272 82.7971 163.159 84.6122 158.403L83.781 158.085ZM76.1265 170.111C72.7985 173.483 68.7506 176.121 63.976 178.024L64.3053 178.851C69.1849 176.907 73.3387 174.203 76.7602 170.737L76.1265 170.111ZM63.976 178.024C59.2094 179.923 53.8199 180.877 47.8011 180.877V181.767C53.9142 181.767 59.4177 180.798 64.3053 178.851L63.976 178.024ZM47.8011 180.877C41.7824 180.877 36.3712 179.923 31.5609 178.023L31.2341 178.851C36.1635 180.798 41.688 181.767 47.8011 181.767V180.877ZM31.5622 178.024C26.7874 176.121 22.7395 173.483 19.4114 170.111L18.7782 170.737C22.1995 174.203 26.3535 176.907 31.2329 178.851L31.5622 178.024ZM19.4114 170.111C16.0814 166.737 13.5079 162.73 11.6919 158.082L10.863 158.406C12.7208 163.16 15.3589 167.273 18.7782 170.737L19.4114 170.111ZM11.6937 158.086C9.92058 153.398 9.03125 148.26 9.03125 142.666H8.14129C8.14129 148.355 9.04611 153.602 10.8613 158.402L11.6937 158.086ZM9.03125 142.666V87.2795H8.14129V142.666H9.03125ZM8.58627 87.7246H27.8092V86.8343H8.58627V87.7246ZM27.3643 87.2795V142.666H28.2542V87.2795H27.3643ZM27.3643 142.666C27.3643 146.124 27.8178 149.249 28.732 152.036L29.5777 151.759C28.6977 149.076 28.2542 146.047 28.2542 142.666H27.3643ZM28.732 152.036C29.6459 154.822 30.9772 157.207 32.7309 159.181L33.3961 158.589C31.7325 156.717 30.458 154.443 29.5777 151.759L28.732 152.036ZM32.7309 159.181C34.485 161.155 36.6325 162.688 39.1669 163.781L39.5191 162.964C37.0983 161.92 35.0595 160.461 33.3961 158.589L32.7309 159.181ZM39.1729 163.784C41.7132 164.835 44.592 165.356 47.8011 165.356V164.466C44.6881 164.466 41.9281 163.961 39.5132 162.961L39.1729 163.784ZM138.292 129.204L137.973 128.894L137.971 128.897L138.292 129.204ZM141.432 110.998L141.013 111.148L141.015 111.153L141.017 111.159L141.432 110.998ZM138.228 106.126L137.919 106.446L137.923 106.451L137.928 106.455L138.228 106.126ZM132.846 102.985L132.986 102.563L132.846 102.985ZM112.918 101.895V101.45H112.473V101.895H112.918ZM112.918 133.563H112.473V134.009H112.918V133.563ZM141.56 89.5231L141.423 89.9465L141.424 89.9469L141.56 89.5231ZM153.03 95.8054L152.732 96.1362L152.735 96.1389L153.03 95.8054ZM159.63 105.293L159.214 105.452L159.216 105.457L159.63 105.293ZM159.566 129.845L159.151 129.682L159.566 129.845ZM152.774 139.653L152.476 139.323L152.774 139.653ZM141.304 146.064L141.441 146.487L141.445 146.486L141.304 146.064ZM112.918 148.308V147.862H112.473V148.308H112.918ZM112.918 180.296V180.741H113.363V180.296H112.918ZM93.6951 180.296H93.2501V180.741H93.6951V180.296ZM93.6951 87.2795V86.8343H93.2501V87.2795H93.6951ZM125.093 134.009C131.177 134.009 135.719 132.542 138.614 129.512L137.971 128.897C135.312 131.679 131.054 133.118 125.093 133.118V134.009ZM138.611 129.514C141.53 126.506 142.966 122.41 142.966 117.281H142.076C142.076 122.238 140.693 126.09 137.973 128.894L138.611 129.514ZM142.966 117.281C142.966 114.926 142.596 112.776 141.847 110.838L141.017 111.159C141.721 112.981 142.076 115.02 142.076 117.281H142.966ZM141.851 110.849C141.144 108.86 140.036 107.173 138.528 105.797L137.928 106.455C139.325 107.729 140.353 109.291 141.013 111.148L141.851 110.849ZM138.538 105.807C137.073 104.385 135.218 103.307 132.986 102.563L132.705 103.408C134.831 104.116 136.564 105.132 137.919 106.446L138.538 105.807ZM132.986 102.563C130.751 101.818 128.117 101.45 125.093 101.45V102.341C128.049 102.341 130.583 102.7 132.705 103.408L132.986 102.563ZM125.093 101.45H112.918V102.341H125.093V101.45ZM112.473 101.895V133.563H113.363V101.895H112.473ZM112.918 134.009H125.093V133.118H112.918V134.009ZM125.093 87.7246C131.425 87.7246 136.865 88.469 141.423 89.9465L141.697 89.0998C137.028 87.5857 131.49 86.8343 125.093 86.8343V87.7246ZM141.424 89.9469C146.033 91.4276 149.798 93.4941 152.732 96.1362L153.328 95.4747C150.282 92.732 146.4 90.6103 141.696 89.0993L141.424 89.9469ZM152.735 96.1389C155.672 98.7418 157.831 101.845 159.214 105.452L160.045 105.134C158.609 101.39 156.368 98.1684 153.325 95.472L152.735 96.1389ZM159.216 105.457C160.646 109.075 161.363 113.015 161.363 117.281H162.253C162.253 112.914 161.518 108.862 160.044 105.129L159.216 105.457ZM161.363 117.281C161.363 121.805 160.624 125.937 159.151 129.682L159.98 130.008C161.497 126.147 162.253 121.903 162.253 117.281H161.363ZM159.151 129.682C157.682 133.422 155.457 136.634 152.476 139.323L153.071 139.984C156.155 137.203 158.46 133.876 159.98 130.008L159.151 129.682ZM152.476 139.323C149.496 142.01 145.729 144.119 141.163 145.642L141.445 146.486C146.105 144.932 149.985 142.767 153.071 139.984L152.476 139.323ZM141.166 145.641C136.608 147.119 131.252 147.862 125.093 147.862V148.753C131.321 148.753 136.773 148.001 141.441 146.487L141.166 145.641ZM125.093 147.862H112.918V148.753H125.093V147.862ZM112.473 148.308V180.296H113.363V148.308H112.473ZM112.918 179.851H93.6951V180.741H112.918V179.851ZM94.14 180.296V87.2795H93.2501V180.296H94.14ZM93.6951 87.7246H125.093V86.8343H93.6951V87.7246ZM212.871 105.101L213.251 105.332L213.259 105.32L213.265 105.308L212.871 105.101ZM211.013 107.28L211.272 107.643L211.276 107.639L211.013 107.28ZM205.566 106.96L205.327 107.335L205.336 107.34L205.344 107.345L205.566 106.96ZM201.786 104.78L201.994 104.387L201.786 104.78ZM196.788 102.665L196.636 103.083L196.64 103.085L196.645 103.086L196.788 102.665ZM180.192 104.652L180.487 104.985L180.491 104.982L180.192 104.652ZM178.654 117.537L178.32 117.83L178.325 117.836L178.33 117.841L178.654 117.537ZM183.46 120.999L183.261 121.397L183.265 121.399L183.46 120.999ZM198.005 126.191L197.857 126.611L197.86 126.612L197.863 126.613L198.005 126.191ZM212.487 134.076L212.179 134.398L212.183 134.401L212.487 134.076ZM217.293 141L216.885 141.178L216.887 141.182L216.888 141.186L217.293 141ZM216.908 162.795L216.496 162.629L216.494 162.632L216.908 162.795ZM210.564 172.475L210.877 172.793L210.879 172.79L210.564 172.475ZM200.248 178.95L200.088 178.535L200.087 178.535L200.248 178.95ZM177.565 180.424L177.476 180.86L177.476 180.861L177.565 180.424ZM169.107 177.924L168.943 178.338L168.945 178.339L169.107 177.924ZM161.482 174.078L161.718 173.7L161.482 174.078ZM155.202 169.078L154.824 168.843L154.641 169.14L154.884 169.389L155.202 169.078ZM160.841 159.975L160.474 159.722L160.469 159.731L160.463 159.74L160.841 159.975ZM162.699 158.308L162.916 158.697L162.924 158.693L162.932 158.688L162.699 158.308ZM168.787 158.885L169.034 158.515L168.787 158.885ZM173.208 161.706L173.441 161.326L173.208 161.706ZM178.975 164.526L178.812 164.941L178.815 164.942L178.975 164.526ZM197.301 162.731L197.017 162.389L197.014 162.391L197.301 162.731ZM199.159 147.859L198.815 148.142L198.818 148.145L198.82 148.148L199.159 147.859ZM187.689 141.705L187.566 142.133L187.569 142.134L187.573 142.134L187.689 141.705ZM179.936 139.333L180.072 138.909L179.936 139.333ZM172.183 136.256L171.992 136.658L172.183 136.256ZM160.649 124.204L160.238 124.374L160.239 124.379L160.649 124.204ZM160.905 103.306L160.495 103.133L160.905 103.306ZM176.668 88.5616L176.504 88.1475L176.503 88.1484L176.668 88.5616ZM205.502 88.8821L205.348 89.2997L205.353 89.3014L205.502 88.8821ZM217.613 96.0619L218.007 96.2689L218.165 95.9684L217.917 95.7369L217.613 96.0619ZM212.491 104.869C211.911 105.823 211.328 106.497 210.75 106.921L211.276 107.639C211.98 107.123 212.635 106.345 213.251 105.332L212.491 104.869ZM210.754 106.918C210.253 107.276 209.563 107.476 208.642 107.476V108.367C209.687 108.367 210.576 108.139 211.272 107.643L210.754 106.918ZM208.642 107.476C207.804 107.476 206.856 107.19 205.789 106.574L205.344 107.345C206.499 108.012 207.601 108.367 208.642 108.367V107.476ZM205.806 106.585C204.726 105.893 203.455 105.16 201.994 104.387L201.578 105.174C203.023 105.939 204.272 106.659 205.327 107.335L205.806 106.585ZM201.994 104.387C200.517 103.604 198.829 102.89 196.932 102.243L196.645 103.086C198.506 103.721 200.15 104.417 201.578 105.174L201.994 104.387ZM196.94 102.246C195.001 101.541 192.748 101.194 190.188 101.194V102.084C192.67 102.084 194.816 102.421 196.636 103.083L196.94 102.246ZM190.188 101.194C185.688 101.194 182.229 102.21 179.894 104.322L180.491 104.982C182.598 103.077 185.804 102.084 190.188 102.084V101.194ZM179.898 104.319C177.572 106.376 176.415 109.087 176.415 112.409H177.305C177.305 109.32 178.37 106.86 180.487 104.985L179.898 104.319ZM176.415 112.409C176.415 114.553 177.043 116.371 178.32 117.83L178.989 117.244C177.873 115.968 177.305 114.367 177.305 112.409H176.415ZM178.33 117.841C179.611 119.212 181.259 120.395 183.261 121.397L183.659 120.601C181.732 119.637 180.175 118.512 178.98 117.233L178.33 117.841ZM183.265 121.399C185.297 122.394 187.583 123.278 190.122 124.053L190.382 123.202C187.88 122.438 185.639 121.57 183.656 120.599L183.265 121.399ZM190.122 124.053C192.636 124.82 195.214 125.673 197.857 126.611L198.155 125.772C195.5 124.83 192.909 123.973 190.382 123.202L190.122 124.053ZM197.863 126.613C200.493 127.504 203.06 128.565 205.562 129.796L205.955 128.997C203.418 127.749 200.815 126.673 198.148 125.77L197.863 126.613ZM205.562 129.796C208.043 131.016 210.248 132.55 212.179 134.398L212.794 133.754C210.795 131.842 208.515 130.256 205.955 128.997L205.562 129.796ZM212.183 134.401C214.143 136.237 215.711 138.494 216.885 141.178L217.7 140.821C216.482 138.035 214.846 135.676 212.791 133.751L212.183 134.401ZM216.888 141.186C218.093 143.805 218.706 147.028 218.706 150.872H219.596C219.596 146.938 218.97 143.579 217.697 140.814L216.888 141.186ZM218.706 150.872C218.706 155.049 217.968 158.967 216.496 162.629L217.321 162.962C218.838 159.188 219.596 155.157 219.596 150.872H218.706ZM216.494 162.632C215.064 166.251 212.983 169.426 210.25 172.161L210.879 172.79C213.699 169.969 215.847 166.691 217.322 162.959L216.494 162.632ZM210.253 172.158C207.524 174.845 204.139 176.973 200.088 178.535L200.408 179.365C204.559 177.765 208.051 175.576 210.877 172.793L210.253 172.158ZM200.087 178.535C196.089 180.093 191.531 180.877 186.408 180.877V181.767C191.622 181.767 196.291 180.969 200.41 179.365L200.087 178.535ZM186.408 180.877C183.49 180.877 180.573 180.581 177.654 179.988L177.476 180.861C180.453 181.465 183.43 181.767 186.408 181.767V180.877ZM177.655 179.989C174.775 179.395 171.979 178.569 169.269 177.51L168.945 178.339C171.703 179.417 174.546 180.257 177.476 180.86L177.655 179.989ZM169.271 177.511C166.604 176.452 164.087 175.182 161.718 173.7L161.246 174.455C163.662 175.966 166.227 177.26 168.943 178.338L169.271 177.511ZM161.718 173.7C159.353 172.222 157.288 170.577 155.521 168.767L154.884 169.389C156.705 171.254 158.827 172.943 161.246 174.455L161.718 173.7ZM155.581 169.312L161.219 160.209L160.463 159.74L154.824 168.843L155.581 169.312ZM161.208 160.227C161.636 159.604 162.203 159.093 162.916 158.697L162.483 157.919C161.658 158.378 160.986 158.979 160.474 159.722L161.208 160.227ZM162.932 158.688C163.635 158.258 164.367 158.048 165.134 158.048V157.158C164.194 157.158 163.302 157.418 162.467 157.928L162.932 158.688ZM165.134 158.048C166.175 158.048 167.307 158.434 168.54 159.255L169.034 158.515C167.703 157.627 166.401 157.158 165.134 157.158V158.048ZM168.54 159.255C169.827 160.114 171.305 161.057 172.975 162.085L173.441 161.326C171.779 160.303 170.31 159.366 169.034 158.515L168.54 159.255ZM172.975 162.085C174.667 163.127 176.614 164.078 178.812 164.941L179.137 164.112C176.979 163.265 175.081 162.336 173.441 161.326L172.975 162.085ZM178.815 164.942C181.1 165.821 183.805 166.254 186.92 166.254V165.363C183.884 165.363 181.293 164.941 179.134 164.111L178.815 164.942ZM186.92 166.254C191.468 166.254 195.045 165.214 197.587 163.072L197.014 162.391C194.687 164.352 191.343 165.363 186.92 165.363V166.254ZM197.585 163.074C200.19 160.917 201.462 157.719 201.462 153.564H200.572C200.572 157.529 199.367 160.443 197.017 162.389L197.585 163.074ZM201.462 153.564C201.462 151.133 200.82 149.121 199.497 147.57L198.82 148.148C199.976 149.503 200.572 151.294 200.572 153.564H201.462ZM199.502 147.576C198.261 146.068 196.628 144.813 194.616 143.807L194.218 144.603C196.137 145.563 197.665 146.744 198.815 148.142L199.502 147.576ZM194.616 143.807C192.62 142.808 190.349 141.965 187.806 141.275L187.573 142.134C190.07 142.812 192.284 143.636 194.218 144.603L194.616 143.807ZM187.812 141.277C185.297 140.552 182.717 139.763 180.072 138.909L179.799 139.757C182.452 140.613 185.041 141.405 187.566 142.133L187.812 141.277ZM180.072 138.909C177.443 138.061 174.876 137.042 172.374 135.854L171.992 136.658C174.53 137.863 177.133 138.896 179.799 139.757L180.072 138.909ZM172.374 135.854C169.899 134.679 167.698 133.127 165.769 131.197L165.14 131.827C167.141 133.829 169.426 135.44 171.992 136.658L172.374 135.854ZM165.769 131.197C163.85 129.277 162.278 126.89 161.058 124.03L160.239 124.379C161.498 127.33 163.13 129.816 165.14 131.827L165.769 131.197ZM161.06 124.034C159.893 121.198 159.3 117.649 159.3 113.37H158.41C158.41 117.725 159.013 121.398 160.238 124.374L161.06 124.034ZM159.3 113.37C159.3 109.969 159.971 106.673 161.315 103.478L160.495 103.133C159.106 106.435 158.41 109.848 158.41 113.37H159.3ZM161.315 103.478C162.657 100.289 164.63 97.4548 167.235 94.9739L166.622 94.3293C163.931 96.8912 161.887 99.8263 160.495 103.133L161.315 103.478ZM167.235 94.9739C169.838 92.4965 173.034 90.495 176.833 88.9747L176.503 88.1484C172.612 89.7048 169.316 91.7637 166.622 94.3293L167.235 94.9739ZM176.832 88.9756C180.658 87.4611 185.043 86.6989 189.996 86.6989V85.8086C184.953 85.8086 180.453 86.585 176.504 88.1475L176.832 88.9756ZM189.996 86.6989C195.545 86.6989 200.661 87.5675 205.348 89.2997L205.657 88.4645C200.861 86.6923 195.639 85.8086 189.996 85.8086V86.6989ZM205.353 89.3014C210.087 90.9931 214.07 93.3565 217.309 96.3869L217.917 95.7369C214.578 92.6131 210.487 90.19 205.652 88.4627L205.353 89.3014ZM217.219 95.8549L212.477 104.894L213.265 105.308L218.007 96.2689L217.219 95.8549ZM287.364 102.793V103.238H287.809V102.793H287.364ZM260.196 102.793V102.348H259.751V102.793H260.196ZM260.196 180.296V180.741H260.641V180.296H260.196ZM240.909 180.296H240.464V180.741H240.909V180.296ZM240.909 102.793H241.354V102.348H240.909V102.793ZM213.74 102.793H213.295V103.238H213.74V102.793ZM213.74 87.2795V86.8343H213.295V87.2795H213.74ZM287.364 87.2795H287.809V86.8343H287.364V87.2795ZM287.364 102.348H260.196V103.238H287.364V102.348ZM259.751 102.793V180.296H260.641V102.793H259.751ZM260.196 179.851H240.909V180.741H260.196V179.851ZM241.354 180.296V102.793H240.464V180.296H241.354ZM240.909 102.348H213.74V103.238H240.909V102.348ZM214.185 102.793V87.2795H213.295V102.793H214.185ZM213.74 87.7246H287.364V86.8343H213.74V87.7246ZM286.919 87.2795V102.793H287.809V87.2795H286.919ZM67.2163 319.711L66.9017 320.026L66.9048 320.029L66.9079 320.032L67.2163 319.711ZM68.8823 334.327V334.772H69.3273V334.327H68.8823ZM4.42129 334.327H3.97632V334.772H4.42129V334.327ZM5.12614 324.968L5.54392 325.121L5.54548 325.116L5.12614 324.968ZM7.49697 321.378L7.80538 321.699L7.80872 321.695L7.81197 321.692L7.49697 321.378ZM35.0499 293.748L34.7352 293.433L34.7349 293.434L35.0499 293.748ZM41.2653 287.017L41.606 287.303L41.6088 287.3L41.2653 287.017ZM45.7507 280.671L46.1351 280.895L46.1369 280.892L45.7507 280.671ZM46.1351 258.17L45.8174 258.481L45.8205 258.485L46.1351 258.17ZM32.3587 255.67L32.4994 256.092L32.5031 256.091L32.5068 256.09L32.3587 255.67ZM28.5141 257.657L28.2492 257.299L28.246 257.302L28.2428 257.304L28.5141 257.657ZM25.6306 260.67L25.2667 260.414L25.6306 260.67ZM23.8365 264.452L24.2552 264.603L24.2606 264.588L24.2649 264.573L23.8365 264.452ZM20.6967 268.747L20.9061 269.14L20.9107 269.138L20.6967 268.747ZM15.1862 269.196L15.1082 269.634L15.1118 269.635L15.1155 269.635L15.1862 269.196ZM5.83098 267.529L5.39099 267.463L5.32629 267.892L5.75297 267.967L5.83098 267.529ZM16.724 247.08L16.4454 246.732L16.724 247.08ZM26.3996 242.015L26.5297 242.441L26.5342 242.44L26.3996 242.015ZM50.1079 242.272L49.9539 242.689L49.9566 242.691L49.9597 242.692L50.1079 242.272ZM59.399 247.721L59.0982 248.049L59.1013 248.051L59.399 247.721ZM65.3581 256.118L65.767 255.943L65.3581 256.118ZM65.9989 276.504L65.5775 276.361L65.9989 276.504ZM61.962 284.838L61.5883 284.596L61.5869 284.598L61.962 284.838ZM56.1311 292.466L55.7996 292.169L56.1311 292.466ZM49.0827 299.966L48.7654 299.654L48.7645 299.655L49.0827 299.966ZM29.3471 320.16L29.0289 319.848L27.8369 321.068L29.4726 320.587L29.3471 320.16ZM35.8188 318.685L35.8891 319.125L35.8934 319.124L35.8977 319.123L35.8188 318.685ZM62.731 318.553C64.5692 318.553 65.9383 319.062 66.9017 320.026L67.5309 319.396C66.3584 318.223 64.7374 317.663 62.731 317.663V318.553ZM66.9079 320.032C67.9189 321.005 68.4373 322.292 68.4373 323.942H69.3273C69.3273 322.087 68.735 320.554 67.5247 319.39L66.9079 320.032ZM68.4373 323.942V334.327H69.3273V323.942H68.4373ZM68.8823 333.882H4.42129V334.772H68.8823V333.882ZM4.86627 334.327V328.557H3.97632V334.327H4.86627ZM4.86627 328.557C4.86627 327.509 5.08805 326.364 5.54392 325.121L4.70835 324.814C4.22445 326.135 3.97632 327.383 3.97632 328.557H4.86627ZM5.54548 325.116C5.9901 323.863 6.73966 322.724 7.80538 321.699L7.18856 321.057C6.03295 322.168 5.20196 323.422 4.70679 324.819L5.54548 325.116ZM7.81197 321.692L35.3649 294.063L34.7349 293.434L7.18197 321.063L7.81197 321.692ZM35.3645 294.063C37.7214 291.705 39.8022 289.452 41.606 287.303L40.9246 286.731C39.1401 288.856 37.0773 291.091 34.7352 293.433L35.3645 294.063ZM41.6088 287.3C43.4154 285.106 44.9248 282.971 46.1351 280.895L45.3662 280.446C44.1842 282.474 42.7035 284.57 40.9218 286.734L41.6088 287.3ZM46.1369 280.892C47.3499 278.769 48.2617 276.619 48.8704 274.445L48.0134 274.204C47.426 276.303 46.5441 278.385 45.3644 280.45L46.1369 280.892ZM48.8704 274.445C49.48 272.266 49.7839 269.982 49.7839 267.593H48.894C48.894 269.906 48.5999 272.109 48.0134 274.204L48.8704 274.445ZM49.7839 267.593C49.7839 263.375 48.6964 260.102 46.4497 257.855L45.8205 258.485C47.8456 260.511 48.894 263.521 48.894 267.593H49.7839ZM46.4528 257.858C44.2119 255.571 41.0727 254.455 37.1003 254.455V255.346C40.9026 255.346 43.7866 256.409 45.8174 258.481L46.4528 257.858ZM37.1003 254.455C35.3467 254.455 33.7154 254.718 32.2106 255.25L32.5068 256.09C33.9067 255.595 35.4366 255.346 37.1003 255.346V254.455ZM32.218 255.247C30.7653 255.732 29.4416 256.415 28.2492 257.299L28.7789 258.015C29.8933 257.189 31.1326 256.548 32.4994 256.092L32.218 255.247ZM28.2428 257.304C27.0963 258.186 26.104 259.224 25.2667 260.414L25.9945 260.926C26.7805 259.809 27.7105 258.837 28.7854 258.01L28.2428 257.304ZM25.2667 260.414C24.4259 261.609 23.8061 262.916 23.4082 264.331L24.2649 264.573C24.6358 263.253 25.2121 262.038 25.9945 260.926L25.2667 260.414ZM23.4178 264.301C22.6677 266.386 21.6739 267.703 20.4828 268.357L20.9107 269.138C22.3681 268.338 23.4674 266.792 24.2552 264.603L23.4178 264.301ZM20.4873 268.355C19.3321 268.971 17.6114 269.135 15.2568 268.757L15.1155 269.635C17.5453 270.026 19.4983 269.891 20.9061 269.14L20.4873 268.355ZM15.2642 268.757L5.90898 267.091L5.75297 267.967L15.1082 269.634L15.2642 268.757ZM6.27097 267.596C6.94796 263.109 8.21516 259.186 10.0655 255.82L9.28568 255.391C7.37683 258.863 6.08097 262.89 5.39099 267.463L6.27097 267.596ZM10.0655 255.82C11.9192 252.448 14.2321 249.653 17.0026 247.427L16.4454 246.732C13.5771 249.037 11.1911 251.925 9.28568 255.391L10.0655 255.82ZM17.0026 247.427C19.7757 245.199 22.95 243.536 26.5297 242.441L26.2694 241.59C22.5871 242.716 19.311 244.43 16.4454 246.732L17.0026 247.427ZM26.5342 242.44C30.1176 241.301 33.9804 240.73 38.1256 240.73V239.839C33.898 239.839 29.9435 240.422 26.2649 241.591L26.5342 242.44ZM38.1256 240.73C42.4807 240.73 46.4217 241.385 49.9539 242.689L50.2618 241.854C46.6175 240.508 42.5703 239.839 38.1256 239.839V240.73ZM49.9597 242.692C53.5404 243.956 56.5841 245.743 59.0982 248.049L59.6998 247.393C57.0878 244.998 53.9373 243.152 50.2561 241.852L49.9597 242.692ZM59.1013 248.051C61.6145 250.315 63.564 253.06 64.9492 256.294L65.767 255.943C64.3329 252.595 62.3096 249.742 59.6967 247.39L59.1013 248.051ZM64.9492 256.294C66.3326 259.523 67.0276 263.095 67.0276 267.016H67.9176C67.9176 262.988 67.203 259.295 65.767 255.943L64.9492 256.294ZM67.0276 267.016C67.0276 270.392 66.5426 273.506 65.5775 276.361L66.4203 276.646C67.4201 273.69 67.9176 270.478 67.9176 267.016H67.0276ZM65.5775 276.361C64.607 279.232 63.2774 281.976 61.5883 284.596L62.3358 285.079C64.0641 282.399 65.4257 279.589 66.4203 276.646L65.5775 276.361ZM61.5869 284.598C59.9352 287.183 58.0062 289.707 55.7996 292.169L56.4626 292.764C58.6986 290.268 60.6569 287.706 62.3372 285.078L61.5869 284.598ZM55.7996 292.169C53.5831 294.642 51.2386 297.137 48.7654 299.654L49.3999 300.279C51.882 297.753 54.2364 295.248 56.4626 292.764L55.7996 292.169ZM48.7645 299.655L29.0289 319.848L29.6652 320.471L49.4008 300.278L48.7645 299.655ZM29.4726 320.587C31.634 319.951 33.7728 319.463 35.8891 319.125L35.7485 318.246C33.593 318.591 31.4174 319.086 29.2215 319.733L29.4726 320.587ZM35.8977 319.123C38.0114 318.743 39.9925 318.553 41.842 318.553V317.663C39.9323 317.663 37.898 317.858 35.74 318.247L35.8977 319.123ZM41.842 318.553H62.731V317.663H41.842V318.553ZM131.623 308.941L131.196 308.816L131.623 308.941ZM124.383 323.814L124.732 324.09L124.733 324.088L124.383 323.814ZM113.426 332.532L113.608 332.938L113.61 332.937L113.426 332.532ZM86.2573 332.532L86.0713 332.937L86.0748 332.938L86.2573 332.532ZM75.4279 323.814L75.0759 324.086L75.0773 324.087L75.4279 323.814ZM68.2518 308.941L67.8237 309.064L67.8246 309.066L68.2518 308.941ZM68.2518 266.696L67.8246 266.571L67.8242 266.572L68.2518 266.696ZM75.4279 251.887L75.779 252.161L75.7803 252.16L75.4279 251.887ZM86.2573 243.169L86.4393 243.575L86.4428 243.574L86.2573 243.169ZM113.426 243.169L113.24 243.574L113.245 243.576L113.426 243.169ZM124.383 251.887L124.032 252.162L124.034 252.164L124.383 251.887ZM131.623 266.696L131.196 266.821V266.822L131.623 266.696ZM114.579 271.504L114.143 271.595L114.144 271.599L114.579 271.504ZM110.991 261.375L110.609 261.605L110.991 261.375ZM105.801 256.183L105.598 256.579L105.601 256.581L105.801 256.183ZM93.8819 256.183L93.6795 255.786L93.6759 255.788L93.8819 256.183ZM88.8203 261.375L88.439 261.145L88.4363 261.15L88.8203 261.375ZM85.2961 271.504L85.7313 271.595L85.2961 271.504ZM85.2961 304.133L84.8605 304.225L85.2961 304.133ZM88.8203 314.262L88.4363 314.487L88.439 314.492L88.8203 314.262ZM93.8819 319.454L93.6759 319.849L93.6795 319.851L93.8819 319.454ZM105.801 319.454L105.601 319.056L105.598 319.058L105.801 319.454ZM114.579 304.133L114.144 304.038L114.143 304.042L114.579 304.133ZM133.806 287.786C133.806 295.876 132.933 302.884 131.196 308.816L132.05 309.066C133.817 303.032 134.696 295.937 134.696 287.786H133.806ZM131.196 308.816C129.457 314.758 127.066 319.661 124.032 323.539L124.733 324.088C127.851 320.102 130.287 315.091 132.05 309.066L131.196 308.816ZM124.034 323.537C120.999 327.375 117.402 330.235 113.242 332.127L113.61 332.937C117.908 330.983 121.615 328.031 124.732 324.09L124.034 323.537ZM113.243 332.126C109.118 333.979 104.652 334.907 99.8411 334.907V335.798C104.77 335.798 109.361 334.846 113.608 332.938L113.243 332.126ZM99.8411 334.907C95.0304 334.907 90.5647 333.979 86.4393 332.126L86.0748 332.938C90.3221 334.846 94.9125 335.798 99.8411 335.798V334.907ZM86.4428 332.127C82.3255 330.236 78.7715 327.377 75.779 323.54L75.0773 324.087C78.1507 328.029 81.816 330.981 86.0713 332.937L86.4428 332.127ZM75.7803 323.542C72.7888 319.663 70.4184 314.759 68.6785 308.816L67.8246 309.066C69.5876 315.09 72.0016 320.1 75.0759 324.086L75.7803 323.542ZM68.6794 308.819C66.9849 302.885 66.1332 295.877 66.1332 287.786H65.2433C65.2433 295.936 66.1008 303.031 67.8237 309.064L68.6794 308.819ZM66.1332 287.786C66.1332 279.696 66.9849 272.709 68.6794 266.819L67.8242 266.572C66.1008 272.563 65.2433 279.637 65.2433 287.786H66.1332ZM68.6785 266.821C70.4184 260.878 72.7883 255.996 75.779 252.161L75.0773 251.614C72.002 255.557 69.5876 260.547 67.8246 266.571L68.6785 266.821ZM75.7803 252.16C78.7723 248.281 82.325 245.423 86.4393 243.575L86.0748 242.763C81.8164 244.676 78.1498 247.631 75.0759 251.616L75.7803 252.16ZM86.4428 243.574C90.5673 241.679 95.0318 240.73 99.8411 240.73V239.839C94.9112 239.839 90.3195 240.813 86.0713 242.765L86.4428 243.574ZM99.8411 240.73C104.651 240.73 109.115 241.679 113.24 243.574L113.611 242.765C109.363 240.813 104.771 239.839 99.8411 239.839V240.73ZM113.245 243.576C117.402 245.424 120.998 248.283 124.032 252.162L124.733 251.613C121.616 247.629 117.907 244.675 113.606 242.762L113.245 243.576ZM124.034 252.164C127.066 255.998 129.457 260.879 131.196 266.821L132.05 266.571C130.287 260.546 127.851 255.555 124.732 251.611L124.034 252.164ZM131.196 266.822C132.933 272.711 133.806 279.697 133.806 287.786H134.696C134.696 279.636 133.817 272.561 132.05 266.57L131.196 266.822ZM116.434 287.786C116.434 281.187 115.963 275.724 115.013 271.408L114.144 271.599C115.075 275.83 115.544 281.223 115.544 287.786H116.434ZM115.014 271.412C114.112 267.112 112.902 263.682 111.372 261.145L110.609 261.605C112.069 264.025 113.252 267.348 114.143 271.595L115.014 271.412ZM111.372 261.145C109.846 258.617 108.06 256.815 106 255.785L105.601 256.581C107.471 257.516 109.145 259.176 110.609 261.605L111.372 261.145ZM106.003 255.786C104.021 254.773 101.966 254.263 99.8411 254.263V255.153C101.818 255.153 103.735 255.627 105.598 256.579L106.003 255.786ZM99.8411 254.263C97.7168 254.263 95.6614 254.773 93.6795 255.786L94.0849 256.579C95.9475 255.627 97.8649 255.153 99.8411 255.153V254.263ZM93.6759 255.788C91.7025 256.82 89.9617 258.621 88.439 261.145L89.2012 261.605C90.6688 259.171 92.3027 257.511 94.0884 256.577L93.6759 255.788ZM88.4363 261.15C86.9506 263.686 85.7629 267.113 84.8605 271.412L85.7313 271.595C86.6231 267.347 87.7849 264.022 89.2039 261.6L88.4363 261.15ZM84.8605 271.412C83.9545 275.727 83.5056 281.188 83.5056 287.786H84.3955C84.3955 281.222 84.8431 275.828 85.7313 271.595L84.8605 271.412ZM83.5056 287.786C83.5056 294.428 83.9545 299.91 84.8605 304.225L85.7313 304.042C84.8431 299.809 84.3955 294.394 84.3955 287.786H83.5056ZM84.8605 304.225C85.7629 308.524 86.9506 311.951 88.4363 314.487L89.2039 314.037C87.7849 311.615 86.6231 308.29 85.7313 304.042L84.8605 304.225ZM88.439 314.492C89.9617 317.016 91.7025 318.817 93.6759 319.849L94.0884 319.06C92.3027 318.126 90.6688 316.466 89.2012 314.032L88.439 314.492ZM93.6795 319.851C95.6614 320.864 97.7168 321.374 99.8411 321.374V320.484C97.8649 320.484 95.9475 320.01 94.0849 319.058L93.6795 319.851ZM99.8411 321.374C101.966 321.374 104.021 320.864 106.003 319.851L105.598 319.058C103.735 320.01 101.818 320.484 99.8411 320.484V321.374ZM106 319.852C108.06 318.822 109.846 317.02 111.372 314.492L110.609 314.032C109.145 316.461 107.471 318.121 105.601 319.056L106 319.852ZM111.372 314.492C112.902 311.955 114.112 308.525 115.014 304.225L114.143 304.042C113.252 308.289 112.069 311.612 110.609 314.032L111.372 314.492ZM115.013 304.229C115.963 299.912 116.434 294.428 116.434 287.786H115.544C115.544 294.393 115.075 299.807 114.144 304.038L115.013 304.229Z" fill="url(#paint0_linear)"/>
<path d="M140.296 109.506L140.466 109.917L140.469 109.916L140.472 109.915L140.296 109.506ZM146.575 105.019L146.243 104.723L146.575 105.019ZM150.484 98.031L150.061 97.8922L150.484 98.031ZM151.829 33.4129V32.9678H151.384V33.4129H151.829ZM171.052 33.4129H171.497V32.9678H171.052V33.4129ZM168.297 104.377L167.882 104.217L167.882 104.219L168.297 104.377ZM160.544 116.557L160.227 116.245L160.544 116.557ZM148.241 124.571L148.077 124.157L148.241 124.571ZM115.498 124.571L115.333 124.984L115.335 124.985L115.498 124.571ZM103.195 116.557L103.512 116.245L103.195 116.557ZM95.378 104.377L94.9619 104.535L94.9637 104.54L95.378 104.377ZM92.6868 33.4129V32.9678H92.2418V33.4129H92.6868ZM111.91 33.4129H112.355V32.9678H111.91V33.4129ZM117.164 105.019L117.496 104.723L117.164 105.019ZM123.444 109.506L123.267 109.915L123.27 109.916L123.274 109.917L123.444 109.506ZM131.902 111.49C135.069 111.49 137.926 110.969 140.466 109.917L140.126 109.095C137.71 110.094 134.971 110.599 131.902 110.599V111.49ZM140.472 109.915C143.006 108.822 145.153 107.288 146.908 105.314L146.243 104.723C144.579 106.595 142.541 108.053 140.119 109.097L140.472 109.915ZM146.908 105.314C148.662 103.34 149.993 100.956 150.907 98.1699L150.061 97.8922C149.181 100.577 147.906 102.851 146.243 104.723L146.908 105.314ZM150.907 98.1699C151.821 95.3823 152.274 92.2576 152.274 88.7999H151.384C151.384 92.1801 150.941 95.2095 150.061 97.8922L150.907 98.1699ZM152.274 88.7999V33.4129H151.384V88.7999H152.274ZM151.829 33.8581H171.052V32.9678H151.829V33.8581ZM170.607 33.4129V88.7999H171.497V33.4129H170.607ZM170.607 88.7999C170.607 94.3922 169.697 99.5295 167.882 104.217L168.712 104.538C170.571 99.7379 171.497 94.4901 171.497 88.7999H170.607ZM167.882 104.219C166.108 108.865 163.556 112.872 160.227 116.245L160.861 116.87C164.281 113.405 166.898 109.292 168.713 104.536L167.882 104.219ZM160.227 116.245C156.899 119.616 152.851 122.255 148.077 124.157L148.406 124.984C153.285 123.04 157.439 120.337 160.861 116.87L160.227 116.245ZM148.077 124.157C143.31 126.056 137.92 127.01 131.902 127.01V127.901C138.015 127.901 143.518 126.931 148.406 124.984L148.077 124.157ZM131.902 127.01C125.883 127.01 120.472 126.056 115.661 124.157L115.335 124.985C120.264 126.931 125.789 127.901 131.902 127.901V127.01ZM115.663 124.157C110.888 122.255 106.84 119.616 103.512 116.245L102.879 116.87C106.3 120.337 110.454 123.04 115.333 124.984L115.663 124.157ZM103.512 116.245C100.182 112.871 97.6082 108.863 95.7923 104.215L94.9637 104.54C96.8215 109.294 99.4593 113.406 102.879 116.87L103.512 116.245ZM95.7941 104.22C94.0213 99.5317 93.1318 94.3935 93.1318 88.7999H92.2418C92.2418 94.4888 93.1464 99.7356 94.9619 104.535L95.7941 104.22ZM93.1318 88.7999V33.4129H92.2418V88.7999H93.1318ZM92.6868 33.8581H111.91V32.9678H92.6868V33.8581ZM111.465 33.4129V88.7999H112.355V33.4129H111.465ZM111.465 88.7999C111.465 92.2576 111.918 95.3823 112.833 98.1699L113.678 97.8922C112.798 95.2095 112.355 92.1801 112.355 88.7999H111.465ZM112.833 98.1699C113.746 100.956 115.078 103.34 116.832 105.314L117.496 104.723C115.833 102.851 114.559 100.577 113.678 97.8922L112.833 98.1699ZM116.832 105.314C118.586 107.288 120.733 108.822 123.267 109.915L123.62 109.097C121.199 108.053 119.16 106.595 117.496 104.723L116.832 105.314ZM123.274 109.917C125.814 110.969 128.692 111.49 131.902 111.49V110.599C128.789 110.599 126.028 110.094 123.614 109.095L123.274 109.917ZM222.393 75.3378L222.073 75.0275L222.071 75.0302L222.393 75.3378ZM225.533 57.1319L225.113 57.281L225.115 57.2868L225.117 57.2922L225.533 57.1319ZM222.329 52.2599L222.019 52.5795L222.024 52.5844L222.029 52.5889L222.329 52.2599ZM216.946 49.1187L217.087 48.6963L216.946 49.1187ZM197.019 48.0289V47.5838H196.574V48.0289H197.019ZM197.019 79.6969H196.574V80.1421H197.019V79.6969ZM225.661 35.6566L225.523 36.0801L225.525 36.0805L225.661 35.6566ZM237.13 41.9389L236.833 42.2698L236.835 42.2722L237.13 41.9389ZM243.73 51.4265L243.315 51.5859L243.317 51.5904L243.73 51.4265ZM243.666 75.9788L243.252 75.8159L243.666 75.9788ZM236.874 85.7869L236.576 85.4562L236.874 85.7869ZM225.404 92.1975L225.542 92.6208L225.545 92.6199L225.404 92.1975ZM197.019 94.4412V93.996H196.574V94.4412H197.019ZM197.019 126.43V126.875H197.464V126.43H197.019ZM177.796 126.43H177.351V126.875H177.796V126.43ZM177.796 33.4129V32.9678H177.351V33.4129H177.796ZM209.193 80.1421C215.277 80.1421 219.82 78.6753 222.715 75.6454L222.071 75.0302C219.412 77.8125 215.155 79.2518 209.193 79.2518V80.1421ZM222.712 75.6476C225.63 72.6396 227.067 68.5431 227.067 63.4142H226.177C226.177 68.3712 224.794 72.2238 222.073 75.0279L222.712 75.6476ZM227.067 63.4142C227.067 61.0592 226.696 58.9099 225.948 56.9716L225.117 57.2922C225.821 59.1147 226.177 61.1536 226.177 63.4142H227.067ZM225.952 56.9828C225.245 54.9933 224.137 53.3069 222.629 51.9309L222.029 52.5889C223.425 53.8625 224.453 55.4242 225.113 57.281L225.952 56.9828ZM222.638 51.9403C221.173 50.5188 219.318 49.4406 217.087 48.6963L216.806 49.5412C218.931 50.2499 220.665 51.2658 222.019 52.5795L222.638 51.9403ZM217.087 48.6963C214.852 47.951 212.218 47.5838 209.193 47.5838V48.4741C212.149 48.4741 214.684 48.8334 216.806 49.5412L217.087 48.6963ZM209.193 47.5838H197.019V48.4741H209.193V47.5838ZM196.574 48.0289V79.6969H197.464V48.0289H196.574ZM197.019 80.1421H209.193V79.2518H197.019V80.1421ZM209.193 33.8581C215.525 33.8581 220.966 34.6024 225.523 36.0801L225.798 35.2331C221.129 33.7193 215.591 32.9678 209.193 32.9678V33.8581ZM225.525 36.0805C230.134 37.5611 233.898 39.6276 236.833 42.2698L237.428 41.608C234.382 38.8655 230.5 36.7437 225.796 35.2328L225.525 36.0805ZM236.835 42.2722C239.773 44.8753 241.931 47.9786 243.315 51.5859L244.146 51.2672C242.71 47.5237 240.468 44.302 237.425 41.6057L236.835 42.2722ZM243.317 51.5904C244.746 55.2087 245.464 59.1485 245.464 63.4142H246.354C246.354 59.047 245.619 54.9951 244.144 51.2627L243.317 51.5904ZM245.464 63.4142C245.464 67.9381 244.724 72.0702 243.252 75.8159L244.08 76.1418C245.598 72.2803 246.354 68.036 246.354 63.4142H245.464ZM243.252 75.8159C241.782 79.5554 239.558 82.7673 236.576 85.4562L237.172 86.1177C240.256 83.3363 242.56 80.0095 244.08 76.1418L243.252 75.8159ZM236.576 85.4562C233.596 88.1433 229.83 90.2525 225.264 91.775L225.545 92.6199C230.206 91.0654 234.086 88.901 237.172 86.1177L236.576 85.4562ZM225.267 91.7741C220.708 93.2521 215.353 93.996 209.193 93.996V94.8863C215.421 94.8863 220.873 94.1344 225.542 92.6208L225.267 91.7741ZM209.193 93.996H197.019V94.8863H209.193V93.996ZM196.574 94.4412V126.43H197.464V94.4412H196.574ZM197.019 125.985H177.796V126.875H197.019V125.985ZM178.241 126.43V33.4129H177.351V126.43H178.241ZM177.796 33.8581H209.193V32.9678H177.796V33.8581ZM144.204 205.265L144.584 205.496L144.592 205.484L144.598 205.472L144.204 205.265ZM142.346 207.444L142.605 207.807L142.609 207.803L142.346 207.444ZM136.9 207.124L136.66 207.499L136.668 207.505L136.677 207.509L136.9 207.124ZM133.119 204.944L133.327 204.551L133.119 204.944ZM128.121 202.829L127.969 203.247L127.973 203.249L127.977 203.25L128.121 202.829ZM111.525 204.816L111.82 205.15L111.824 205.146L111.525 204.816ZM109.987 217.701L109.652 217.994L109.657 218L109.663 218.005L109.987 217.701ZM114.793 221.163L114.594 221.561L114.597 221.563L114.793 221.163ZM129.339 226.356L129.19 226.775L129.193 226.776L129.196 226.777L129.339 226.356ZM143.82 234.24L143.512 234.562L143.516 234.565L143.82 234.24ZM148.626 241.164L148.218 241.342L148.22 241.346L148.222 241.35L148.626 241.164ZM148.241 262.96L147.828 262.794L147.827 262.796L148.241 262.96ZM141.898 272.64L142.21 272.957L142.212 272.954L141.898 272.64ZM131.581 279.114L131.421 278.699L131.42 278.699L131.581 279.114ZM108.898 280.589L108.808 281.024L108.81 281.025L108.898 280.589ZM100.44 278.088L100.276 278.502L100.278 278.503L100.44 278.088ZM92.8149 274.242L93.0508 273.865L92.8149 274.242ZM86.5354 269.242L86.1572 269.007L85.9739 269.304L86.2173 269.553L86.5354 269.242ZM92.1742 260.139L91.8075 259.887L91.8017 259.895L91.7959 259.904L92.1742 260.139ZM94.0324 258.472L94.2486 258.861L94.2567 258.857L94.2642 258.852L94.0324 258.472ZM100.12 259.049L100.367 258.679L100.12 259.049ZM104.541 261.87L104.774 261.491L104.541 261.87ZM110.308 264.69L110.145 265.105L110.148 265.106L110.308 264.69ZM128.634 262.896L128.35 262.553L128.347 262.555L128.634 262.896ZM130.492 248.023L130.148 248.306L130.151 248.309L130.153 248.312L130.492 248.023ZM119.022 241.869L118.899 242.297L118.903 242.298L118.906 242.299L119.022 241.869ZM111.269 239.497L111.406 239.073L111.269 239.497ZM103.516 236.42L103.325 236.822L103.516 236.42ZM91.9819 224.368L91.5703 224.538L91.5726 224.543L91.9819 224.368ZM92.2382 203.47L91.828 203.297L92.2382 203.47ZM108.001 188.726L107.837 188.312L107.836 188.313L108.001 188.726ZM136.836 189.046L136.681 189.464L136.686 189.466L136.836 189.046ZM148.946 196.226L149.34 196.433L149.498 196.133L149.25 195.901L148.946 196.226ZM143.824 205.033C143.244 205.987 142.661 206.661 142.083 207.086L142.609 207.803C143.313 207.287 143.968 206.509 144.584 205.496L143.824 205.033ZM142.088 207.082C141.587 207.44 140.896 207.64 139.975 207.64V208.531C141.02 208.531 141.91 208.304 142.605 207.807L142.088 207.082ZM139.975 207.64C139.137 207.64 138.189 207.354 137.122 206.738L136.677 207.509C137.832 208.176 138.934 208.531 139.975 208.531V207.64ZM137.139 206.749C136.059 206.057 134.788 205.325 133.327 204.551L132.911 205.338C134.356 206.103 135.605 206.823 136.66 207.499L137.139 206.749ZM133.327 204.551C131.85 203.769 130.162 203.055 128.265 202.407L127.977 203.25C129.839 203.885 131.483 204.582 132.911 205.338L133.327 204.551ZM128.273 202.41C126.334 201.705 124.081 201.358 121.521 201.358V202.248C124.002 202.248 126.149 202.585 127.969 203.247L128.273 202.41ZM121.521 201.358C117.02 201.358 113.562 202.374 111.227 204.486L111.824 205.146C113.931 203.241 117.137 202.248 121.521 202.248V201.358ZM111.23 204.483C108.905 206.54 107.748 209.251 107.748 212.573H108.638C108.638 209.484 109.703 207.024 111.82 205.15L111.23 204.483ZM107.748 212.573C107.748 214.717 108.376 216.535 109.652 217.994L110.323 217.408C109.207 216.132 108.638 214.531 108.638 212.573H107.748ZM109.663 218.005C110.944 219.376 112.591 220.559 114.594 221.561L114.992 220.765C113.065 219.801 111.508 218.676 110.312 217.397L109.663 218.005ZM114.597 221.563C116.63 222.558 118.916 223.442 121.455 224.217L121.715 223.366C119.214 222.602 116.972 221.734 114.989 220.763L114.597 221.563ZM121.455 224.217C123.969 224.984 126.547 225.837 129.19 226.775L129.487 225.936C126.833 224.994 124.242 224.137 121.715 223.366L121.455 224.217ZM129.196 226.777C131.826 227.668 134.393 228.73 136.896 229.96L137.288 229.161C134.75 227.913 132.148 226.838 129.481 225.934L129.196 226.777ZM136.896 229.96C139.376 231.18 141.581 232.714 143.512 234.562L144.127 233.919C142.129 232.006 139.848 230.42 137.288 229.161L136.896 229.96ZM143.516 234.565C145.476 236.401 147.044 238.658 148.218 241.342L149.033 240.985C147.815 238.199 146.18 235.84 144.124 233.915L143.516 234.565ZM148.222 241.35C149.427 243.969 150.039 247.192 150.039 251.036H150.929C150.929 247.102 150.302 243.744 149.03 240.978L148.222 241.35ZM150.039 251.036C150.039 255.213 149.301 259.131 147.828 262.794L148.654 263.126C150.171 259.352 150.929 255.321 150.929 251.036H150.039ZM147.827 262.796C146.397 266.415 144.316 269.59 141.583 272.325L142.212 272.954C145.032 270.133 147.18 266.855 148.655 263.123L147.827 262.796ZM141.585 272.322C138.858 275.01 135.473 277.137 131.421 278.699L131.741 279.53C135.892 277.929 139.384 275.74 142.21 272.957L141.585 272.322ZM131.42 278.699C127.422 280.257 122.865 281.041 117.741 281.041V281.931C122.955 281.931 127.625 281.133 131.743 279.529L131.42 278.699ZM117.741 281.041C114.823 281.041 111.906 280.745 108.987 280.152L108.81 281.025C111.786 281.629 114.763 281.931 117.741 281.931V281.041ZM108.988 280.153C106.107 279.559 103.312 278.733 100.602 277.674L100.278 278.503C103.036 279.581 105.879 280.421 108.808 281.024L108.988 280.153ZM100.604 277.674C97.9371 276.616 95.4198 275.346 93.0508 273.865L92.5791 274.62C94.9944 276.13 97.5606 277.424 100.276 278.502L100.604 277.674ZM93.0508 273.865C90.6857 272.386 88.621 270.741 86.8536 268.931L86.2173 269.553C88.0381 271.418 90.1598 273.107 92.5791 274.62L93.0508 273.865ZM86.9137 269.477L92.5524 260.374L91.7959 259.904L86.1572 269.007L86.9137 269.477ZM92.5408 260.391C92.9693 259.768 93.5358 259.258 94.2486 258.861L93.8161 258.083C92.9911 258.542 92.3188 259.143 91.8075 259.887L92.5408 260.391ZM94.2642 258.852C94.9673 258.422 95.6993 258.212 96.4673 258.212V257.322C95.5266 257.322 94.6353 257.582 93.8006 258.093L94.2642 258.852ZM96.4673 258.212C97.5077 258.212 98.6406 258.598 99.8727 259.42L100.367 258.679C99.0357 257.791 97.7337 257.322 96.4673 257.322V258.212ZM99.8727 259.42C101.16 260.278 102.638 261.221 104.308 262.249L104.774 261.491C103.112 260.467 101.642 259.53 100.367 258.679L99.8727 259.42ZM104.308 262.249C106 263.291 107.947 264.242 110.145 265.105L110.47 264.276C108.312 263.429 106.414 262.5 104.774 261.491L104.308 262.249ZM110.148 265.106C112.433 265.985 115.138 266.418 118.253 266.418V265.527C115.217 265.527 112.625 265.105 110.468 264.275L110.148 265.106ZM118.253 266.418C122.801 266.418 126.378 265.378 128.92 263.236L128.347 262.555C126.02 264.516 122.676 265.527 118.253 265.527V266.418ZM128.918 263.238C131.523 261.081 132.795 257.883 132.795 253.728H131.905C131.905 257.694 130.7 260.607 128.35 262.553L128.918 263.238ZM132.795 253.728C132.795 251.297 132.153 249.285 130.831 247.734L130.153 248.312C131.308 249.667 131.905 251.459 131.905 253.728H132.795ZM130.835 247.74C129.594 246.232 127.961 244.977 125.949 243.971L125.551 244.767C127.47 245.727 128.998 246.908 130.148 248.306L130.835 247.74ZM125.949 243.971C123.953 242.973 121.682 242.129 119.139 241.439L118.906 242.299C121.403 242.976 123.617 243.8 125.551 244.767L125.949 243.971ZM119.146 241.441C116.63 240.716 114.05 239.927 111.406 239.073L111.132 239.921C113.785 240.777 116.374 241.569 118.899 242.297L119.146 241.441ZM111.406 239.073C108.776 238.225 106.209 237.206 103.707 236.018L103.325 236.822C105.863 238.027 108.465 239.06 111.132 239.921L111.406 239.073ZM103.707 236.018C101.232 234.843 99.0312 233.291 97.1023 231.362L96.4731 231.991C98.4741 233.993 100.759 235.604 103.325 236.822L103.707 236.018ZM97.1023 231.362C95.1827 229.441 93.6106 227.054 92.3913 224.194L91.5726 224.543C92.831 227.494 94.4627 229.98 96.4731 231.991L97.1023 231.362ZM92.3935 224.199C91.2259 221.362 90.6328 217.813 90.6328 213.534H89.7428C89.7428 217.889 90.3458 221.562 91.5703 224.538L92.3935 224.199ZM90.6328 213.534C90.6328 210.133 91.3038 206.837 92.6485 203.643L91.828 203.297C90.4388 206.599 89.7428 210.012 89.7428 213.534H90.6328ZM92.6485 203.643C93.9906 200.453 95.9623 197.619 98.568 195.138L97.9549 194.493C95.2636 197.055 93.2199 199.99 91.828 203.297L92.6485 203.643ZM98.568 195.138C101.171 192.661 104.367 190.659 108.166 189.139L107.836 188.313C103.946 189.869 100.649 191.928 97.9549 194.493L98.568 195.138ZM108.165 189.14C111.991 187.625 116.376 186.863 121.329 186.863V185.973C116.286 185.973 111.786 186.749 107.837 188.312L108.165 189.14ZM121.329 186.863C126.878 186.863 131.994 187.732 136.682 189.464L136.989 188.629C132.194 186.856 126.972 185.973 121.329 185.973V186.863ZM136.686 189.466C141.42 191.157 145.403 193.521 148.642 196.551L149.25 195.901C145.911 192.777 141.82 190.354 136.985 188.627L136.686 189.466ZM148.552 196.019L143.811 205.058L144.598 205.472L149.34 196.433L148.552 196.019ZM218.697 202.957V203.402H219.142V202.957H218.697ZM191.529 202.957V202.512H191.084V202.957H191.529ZM191.529 280.46V280.906H191.974V280.46H191.529ZM172.242 280.46H171.797V280.906H172.242V280.46ZM172.242 202.957H172.687V202.512H172.242V202.957ZM145.073 202.957H144.628V203.402H145.073V202.957ZM145.073 187.444V186.998H144.628V187.444H145.073ZM218.697 187.444H219.142V186.998H218.697V187.444ZM218.697 202.512H191.529V203.402H218.697V202.512ZM191.084 202.957V280.46H191.974V202.957H191.084ZM191.529 280.015H172.242V280.906H191.529V280.015ZM172.687 280.46V202.957H171.797V280.46H172.687ZM172.242 202.512H145.073V203.402H172.242V202.512ZM145.518 202.957V187.444H144.628V202.957H145.518ZM145.073 187.889H218.697V186.998H145.073V187.889ZM218.252 187.444V202.957H219.142V187.444H218.252Z" fill="url(#paint1_linear)"/>
<path d="M93.5732 207.445L93.7432 207.856L93.7463 207.855L93.7494 207.853L93.5732 207.445ZM99.8527 202.957L99.5203 202.662L99.8527 202.957ZM103.761 195.97L103.339 195.831L103.761 195.97ZM105.107 131.352V130.907H104.662V131.352H105.107ZM124.33 131.352H124.775V130.907H124.33V131.352ZM121.575 202.316L121.16 202.156L121.159 202.157L121.575 202.316ZM113.821 214.496L113.505 214.183L113.821 214.496ZM101.519 222.509L101.354 222.096L101.519 222.509ZM68.7755 222.509L68.6109 222.923L68.6122 222.923L68.7755 222.509ZM56.4728 214.496L56.7897 214.183L56.4728 214.496ZM48.6555 202.316L48.2394 202.474L48.2412 202.478L48.6555 202.316ZM45.9643 131.352V130.907H45.5193V131.352H45.9643ZM65.1873 131.352H65.6322V130.907H65.1873V131.352ZM70.4415 202.957L70.7739 202.662L70.4415 202.957ZM76.721 207.445L76.5448 207.853L76.5479 207.855L76.5511 207.856L76.721 207.445ZM85.1791 209.428C88.3465 209.428 91.2037 208.908 93.7432 207.856L93.4032 207.033C90.9874 208.033 88.2486 208.538 85.1791 208.538V209.428ZM93.7494 207.853C96.2835 206.76 98.431 205.227 100.185 203.253L99.5203 202.662C97.857 204.534 95.8181 205.992 93.397 207.036L93.7494 207.853ZM100.185 203.253C101.939 201.279 103.271 198.895 104.184 196.109L103.339 195.831C102.458 198.515 101.184 200.789 99.5203 202.662L100.185 203.253ZM104.184 196.109C105.098 193.321 105.552 190.196 105.552 186.739H104.662C104.662 190.119 104.218 193.148 103.339 195.831L104.184 196.109ZM105.552 186.739V131.352H104.662V186.739H105.552ZM105.107 131.797H124.33V130.907H105.107V131.797ZM123.885 131.352V186.739H124.775V131.352H123.885ZM123.885 186.739C123.885 192.331 122.975 197.468 121.16 202.156L121.989 202.477C123.848 197.677 124.775 192.429 124.775 186.739H123.885ZM121.159 202.157C119.386 206.804 116.834 210.811 113.505 214.183L114.138 214.809C117.558 211.344 120.175 207.231 121.99 202.475L121.159 202.157ZM113.505 214.183C110.177 217.555 106.129 220.194 101.354 222.096L101.683 222.923C106.563 220.979 110.717 218.275 114.138 214.809L113.505 214.183ZM101.354 222.096C96.5874 223.995 91.1979 224.949 85.1791 224.949V225.839C91.2922 225.839 96.7957 224.87 101.683 222.923L101.354 222.096ZM85.1791 224.949C79.1604 224.949 73.749 223.995 68.9388 222.095L68.6122 222.923C73.5417 224.87 79.0661 225.839 85.1791 225.839V224.949ZM68.9402 222.096C64.1656 220.194 60.1176 217.555 56.7897 214.183L56.156 214.809C59.5774 218.275 63.7313 220.979 68.6109 222.923L68.9402 222.096ZM56.7897 214.183C53.4595 210.81 50.8857 206.802 49.0698 202.154L48.2412 202.478C50.099 207.233 52.7368 211.345 56.156 214.809L56.7897 214.183ZM49.0716 202.159C47.2988 197.47 46.4093 192.332 46.4093 186.739H45.5193C45.5193 192.428 46.4239 197.674 48.2394 202.474L49.0716 202.159ZM46.4093 186.739V131.352H45.5193V186.739H46.4093ZM45.9643 131.797H65.1873V130.907H45.9643V131.797ZM64.7423 131.352V186.739H65.6322V131.352H64.7423ZM64.7423 186.739C64.7423 190.196 65.1957 193.321 66.1101 196.109L66.9556 195.831C66.0759 193.148 65.6322 190.119 65.6322 186.739H64.7423ZM66.1101 196.109C67.0237 198.895 68.355 201.279 70.1091 203.253L70.7739 202.662C69.1106 200.789 67.8362 198.515 66.9556 195.831L66.1101 196.109ZM70.1091 203.253C71.8632 205.227 74.0107 206.76 76.5448 207.853L76.8972 207.036C74.4761 205.992 72.4372 204.534 70.7739 202.662L70.1091 203.253ZM76.5511 207.856C79.0914 208.908 81.97 209.428 85.1791 209.428V208.538C82.0661 208.538 79.3059 208.033 76.891 207.033L76.5511 207.856ZM175.67 173.277L175.351 172.966L175.349 172.969L175.67 173.277ZM178.81 155.071L178.391 155.22L178.393 155.226L178.395 155.231L178.81 155.071ZM175.606 150.199L175.297 150.518L175.301 150.523L175.306 150.528L175.606 150.199ZM170.224 147.058L170.364 146.635L170.224 147.058ZM150.296 145.968V145.523H149.851V145.968H150.296ZM150.296 177.636H149.851V178.081H150.296V177.636ZM178.938 133.595L178.801 134.019L178.802 134.019L178.938 133.595ZM190.408 139.878L190.11 140.208L190.113 140.211L190.408 139.878ZM197.008 149.365L196.592 149.525L196.594 149.529L197.008 149.365ZM196.944 173.918L196.53 173.755L196.944 173.918ZM190.152 183.726L189.854 183.395L190.152 183.726ZM178.682 190.136L178.819 190.56L178.823 190.559L178.682 190.136ZM150.296 192.38V191.935H149.851V192.38H150.296ZM150.296 224.368V224.814H150.741V224.368H150.296ZM131.073 224.368H130.628V224.814H131.073V224.368ZM131.073 131.352V130.907H130.628V131.352H131.073ZM162.471 178.081C168.555 178.081 173.097 176.614 175.992 173.584L175.349 172.969C172.69 175.751 168.432 177.191 162.471 177.191V178.081ZM175.989 173.586C178.908 170.578 180.344 166.482 180.344 161.353H179.454C179.454 166.31 178.071 170.163 175.351 172.967L175.989 173.586ZM180.344 161.353C180.344 158.998 179.974 156.849 179.225 154.91L178.395 155.231C179.099 157.053 179.454 159.092 179.454 161.353H180.344ZM179.229 154.922C178.522 152.932 177.414 151.246 175.906 149.87L175.306 150.528C176.703 151.801 177.731 153.363 178.391 155.22L179.229 154.922ZM175.916 149.879C174.451 148.458 172.596 147.379 170.364 146.635L170.083 147.48C172.209 148.189 173.942 149.205 175.297 150.518L175.916 149.879ZM170.364 146.635C168.129 145.89 165.495 145.523 162.471 145.523V146.413C165.427 146.413 167.961 146.772 170.083 147.48L170.364 146.635ZM162.471 145.523H150.296V146.413H162.471V145.523ZM149.851 145.968V177.636H150.741V145.968H149.851ZM150.296 178.081H162.471V177.191H150.296V178.081ZM162.471 131.797C168.803 131.797 174.243 132.541 178.801 134.019L179.075 133.172C174.406 131.658 168.868 130.907 162.471 130.907V131.797ZM178.802 134.019C183.411 135.5 187.176 137.566 190.11 140.208L190.706 139.547C187.66 136.804 183.778 134.683 179.074 133.172L178.802 134.019ZM190.113 140.211C193.05 142.814 195.209 145.917 196.592 149.525L197.423 149.206C195.988 145.462 193.746 142.241 190.703 139.544L190.113 140.211ZM196.594 149.529C198.024 153.148 198.741 157.087 198.741 161.353H199.631C199.631 156.986 198.896 152.934 197.422 149.201L196.594 149.529ZM198.741 161.353C198.741 165.877 198.002 170.009 196.53 173.755L197.358 174.081C198.875 170.219 199.631 165.975 199.631 161.353H198.741ZM196.53 173.755C195.06 177.494 192.835 180.706 189.854 183.395L190.449 184.056C193.533 181.275 195.838 177.948 197.358 174.081L196.53 173.755ZM189.854 183.395C186.874 186.082 183.107 188.191 178.541 189.714L178.823 190.559C183.483 189.004 187.363 186.84 190.449 184.056L189.854 183.395ZM178.544 189.713C173.986 191.191 168.63 191.935 162.471 191.935V192.825C168.699 192.825 174.151 192.073 178.819 190.56L178.544 189.713ZM162.471 191.935H150.296V192.825H162.471V191.935ZM149.851 192.38V224.368H150.741V192.38H149.851ZM150.296 223.923H131.073V224.814H150.296V223.923ZM131.518 224.368V131.352H130.628V224.368H131.518ZM131.073 131.797H162.471V130.907H131.073V131.797ZM250.249 149.173L250.629 149.404L250.637 149.392L250.644 149.38L250.249 149.173ZM248.391 151.353L248.65 151.715L248.654 151.711L248.391 151.353ZM242.945 151.032L242.705 151.407L242.714 151.413L242.722 151.418L242.945 151.032ZM239.164 148.852L239.372 148.459L239.164 148.852ZM234.166 146.737L234.014 147.155L234.018 147.157L234.023 147.158L234.166 146.737ZM217.57 148.724L217.865 149.058L217.869 149.055L217.57 148.724ZM216.032 161.609L215.698 161.902L215.703 161.908L215.708 161.913L216.032 161.609ZM220.838 165.071L220.639 165.469L220.643 165.471L220.838 165.071ZM235.383 170.264L235.235 170.683L235.238 170.684L235.241 170.685L235.383 170.264ZM249.865 178.149L249.557 178.47L249.561 178.474L249.865 178.149ZM254.671 185.072L254.263 185.25L254.265 185.254L254.267 185.258L254.671 185.072ZM254.286 206.868L253.874 206.702L253.872 206.704L254.286 206.868ZM247.942 216.548L248.255 216.865L248.257 216.862L247.942 216.548ZM237.626 223.022L237.466 222.607L237.465 222.607L237.626 223.022ZM214.943 224.497L214.854 224.932L214.855 224.933L214.943 224.497ZM206.485 221.997L206.321 222.411L206.323 222.411L206.485 221.997ZM198.86 218.15L199.096 217.773L198.86 218.15ZM192.58 213.15L192.202 212.915L192.019 213.212L192.262 213.461L192.58 213.15ZM198.219 204.047L197.852 203.795L197.847 203.804L197.841 203.812L198.219 204.047ZM200.077 202.38L200.294 202.769L200.302 202.765L200.31 202.76L200.077 202.38ZM206.165 202.957L206.412 202.587L206.165 202.957ZM210.586 205.778L210.819 205.399L210.586 205.778ZM216.353 208.599L216.19 209.013L216.193 209.014L216.353 208.599ZM234.679 206.804L234.395 206.461L234.392 206.463L234.679 206.804ZM236.537 191.931L236.193 192.214L236.196 192.217L236.198 192.22L236.537 191.931ZM225.067 185.777L224.944 186.205L224.947 186.206L224.951 186.207L225.067 185.777ZM217.314 183.405L217.451 182.981L217.314 183.405ZM209.561 180.328L209.37 180.73L209.561 180.328ZM198.027 168.276L197.616 168.446L197.617 168.451L198.027 168.276ZM198.283 147.378L197.873 147.205L198.283 147.378ZM214.046 132.634L213.882 132.22L213.881 132.221L214.046 132.634ZM242.88 132.954L242.726 133.372L242.731 133.374L242.88 132.954ZM254.991 140.134L255.385 140.341L255.543 140.041L255.295 139.809L254.991 140.134ZM249.869 148.941C249.289 149.895 248.706 150.569 248.128 150.994L248.654 151.711C249.358 151.195 250.013 150.417 250.629 149.404L249.869 148.941ZM248.132 150.99C247.631 151.348 246.941 151.548 246.02 151.548V152.439C247.065 152.439 247.955 152.212 248.65 151.715L248.132 150.99ZM246.02 151.548C245.182 151.548 244.234 151.262 243.167 150.647L242.722 151.418C243.877 152.084 244.979 152.439 246.02 152.439V151.548ZM243.184 150.657C242.104 149.965 240.833 149.233 239.372 148.459L238.956 149.246C240.401 150.011 241.65 150.732 242.705 151.407L243.184 150.657ZM239.372 148.459C237.895 147.677 236.207 146.963 234.31 146.315L234.023 147.158C235.885 147.793 237.528 148.49 238.956 149.246L239.372 148.459ZM234.318 146.319C232.379 145.613 230.126 145.266 227.566 145.266V146.156C230.048 146.156 232.194 146.493 234.014 147.155L234.318 146.319ZM227.566 145.266C223.066 145.266 219.607 146.282 217.272 148.394L217.869 149.055C219.976 147.149 223.182 146.156 227.566 146.156V145.266ZM217.276 148.391C214.95 150.448 213.793 153.16 213.793 156.481H214.683C214.683 153.392 215.748 150.932 217.865 149.058L217.276 148.391ZM213.793 156.481C213.793 158.625 214.421 160.443 215.698 161.902L216.367 161.316C215.251 160.04 214.683 158.439 214.683 156.481H213.793ZM215.708 161.913C216.989 163.284 218.637 164.467 220.639 165.469L221.037 164.673C219.11 163.709 217.553 162.584 216.358 161.305L215.708 161.913ZM220.643 165.471C222.675 166.466 224.961 167.35 227.5 168.125L227.76 167.274C225.259 166.51 223.017 165.642 221.034 164.671L220.643 165.471ZM227.5 168.125C230.014 168.892 232.592 169.745 235.235 170.683L235.533 169.844C232.878 168.902 230.287 168.045 227.76 167.274L227.5 168.125ZM235.241 170.685C237.871 171.576 240.438 172.638 242.941 173.868L243.333 173.07C240.796 171.821 238.193 170.746 235.526 169.842L235.241 170.685ZM242.941 173.868C245.421 175.088 247.626 176.622 249.557 178.47L250.172 177.827C248.173 175.914 245.893 174.328 243.333 173.07L242.941 173.868ZM249.561 178.474C251.521 180.309 253.089 182.566 254.263 185.25L255.078 184.893C253.86 182.107 252.225 179.749 250.169 177.824L249.561 178.474ZM254.267 185.258C255.472 187.877 256.084 191.1 256.084 194.944H256.974C256.974 191.01 256.348 187.652 255.075 184.886L254.267 185.258ZM256.084 194.944C256.084 199.121 255.346 203.039 253.874 206.702L254.699 207.034C256.216 203.26 256.974 199.229 256.974 194.944H256.084ZM253.872 206.704C252.442 210.323 250.361 213.498 247.628 216.233L248.257 216.862C251.077 214.041 253.225 210.763 254.7 207.032L253.872 206.704ZM247.631 216.23C244.902 218.918 241.517 221.045 237.466 222.607L237.786 223.438C241.937 221.837 245.429 219.648 248.255 216.865L247.631 216.23ZM237.465 222.607C233.467 224.165 228.91 224.949 223.786 224.949V225.839C229 225.839 233.669 225.042 237.788 223.437L237.465 222.607ZM223.786 224.949C220.868 224.949 217.951 224.653 215.032 224.06L214.855 224.933C217.831 225.537 220.808 225.839 223.786 225.839V224.949ZM215.033 224.061C212.153 223.467 209.357 222.641 206.647 221.582L206.323 222.411C209.081 223.489 211.924 224.329 214.854 224.932L215.033 224.061ZM206.649 221.583C203.982 220.524 201.465 219.254 199.096 217.773L198.624 218.528C201.04 220.038 203.606 221.332 206.321 222.411L206.649 221.583ZM199.096 217.773C196.731 216.294 194.666 214.649 192.899 212.839L192.262 213.461C194.083 215.326 196.205 217.015 198.624 218.528L199.096 217.773ZM192.959 213.385L198.597 204.282L197.841 203.812L192.202 212.915L192.959 213.385ZM198.586 204.299C199.014 203.676 199.581 203.166 200.294 202.769L199.861 201.991C199.036 202.45 198.364 203.051 197.852 203.795L198.586 204.299ZM200.31 202.76C201.013 202.33 201.745 202.12 202.512 202.12V201.23C201.572 201.23 200.68 201.49 199.845 202.001L200.31 202.76ZM202.512 202.12C203.553 202.12 204.685 202.506 205.918 203.328L206.412 202.587C205.081 201.699 203.779 201.23 202.512 201.23V202.12ZM205.918 203.328C207.205 204.186 208.683 205.129 210.353 206.157L210.819 205.399C209.157 204.375 207.688 203.438 206.412 202.587L205.918 203.328ZM210.353 206.157C212.045 207.199 213.992 208.15 216.19 209.013L216.515 208.184C214.357 207.337 212.459 206.408 210.819 205.399L210.353 206.157ZM216.193 209.014C218.478 209.893 221.183 210.326 224.298 210.326V209.435C221.262 209.435 218.671 209.013 216.513 208.183L216.193 209.014ZM224.298 210.326C228.846 210.326 232.423 209.286 234.965 207.144L234.392 206.463C232.065 208.424 228.721 209.435 224.298 209.435V210.326ZM234.963 207.146C237.568 204.989 238.84 201.791 238.84 197.637H237.95C237.95 201.602 236.745 204.515 234.395 206.461L234.963 207.146ZM238.84 197.637C238.84 195.205 238.198 193.193 236.876 191.642L236.198 192.22C237.354 193.575 237.95 195.367 237.95 197.637H238.84ZM236.88 191.648C235.639 190.14 234.006 188.885 231.994 187.879L231.596 188.675C233.515 189.635 235.043 190.816 236.193 192.214L236.88 191.648ZM231.994 187.879C229.998 186.881 227.727 186.038 225.184 185.347L224.951 186.207C227.448 186.884 229.662 187.708 231.596 188.675L231.994 187.879ZM225.19 185.349C222.675 184.624 220.095 183.835 217.451 182.981L217.177 183.829C219.83 184.685 222.419 185.477 224.944 186.205L225.19 185.349ZM217.451 182.981C214.821 182.133 212.255 181.114 209.752 179.926L209.37 180.73C211.908 181.935 214.511 182.968 217.177 183.829L217.451 182.981ZM209.752 179.926C207.277 178.751 205.076 177.199 203.147 175.27L202.518 175.899C204.519 177.901 206.804 179.512 209.37 180.73L209.752 179.926ZM203.147 175.27C201.228 173.349 199.656 170.963 198.436 168.102L197.617 168.451C198.876 171.402 200.508 173.888 202.518 175.899L203.147 175.27ZM198.438 168.107C197.271 165.271 196.678 161.721 196.678 157.443H195.788C195.788 161.797 196.391 165.47 197.616 168.446L198.438 168.107ZM196.678 157.443C196.678 154.041 197.349 150.745 198.693 147.551L197.873 147.205C196.484 150.507 195.788 153.92 195.788 157.443H196.678ZM198.693 147.551C200.035 144.362 202.008 141.527 204.613 139.046L204 138.402C201.309 140.963 199.265 143.899 197.873 147.205L198.693 147.551ZM204.613 139.046C207.216 136.569 210.412 134.567 214.212 133.047L213.881 132.221C209.99 133.777 206.694 135.836 204 138.402L204.613 139.046ZM214.21 133.048C218.036 131.533 222.421 130.771 227.374 130.771V129.881C222.331 129.881 217.831 130.657 213.882 132.22L214.21 133.048ZM227.374 130.771C232.923 130.771 238.039 131.64 242.726 133.372L243.035 132.537C238.239 130.765 233.017 129.881 227.374 129.881V130.771ZM242.731 133.374C247.465 135.065 251.448 137.429 254.687 140.459L255.295 139.809C251.956 136.685 247.865 134.262 243.03 132.535L242.731 133.374ZM254.597 139.927L249.855 148.966L250.644 149.38L255.385 140.341L254.597 139.927ZM112.924 300.896V301.341H113.369V300.896H112.924ZM85.7558 300.896V300.451H85.3109V300.896H85.7558ZM85.7558 378.399V378.844H86.2008V378.399H85.7558ZM66.4688 378.399H66.0238V378.844H66.4688V378.399ZM66.4688 300.896H66.9138V300.451H66.4688V300.896ZM39.3003 300.896H38.8553V301.341H39.3003V300.896ZM39.3003 285.382V284.937H38.8553V285.382H39.3003ZM112.924 285.382H113.369V284.937H112.924V285.382ZM112.924 300.451H85.7558V301.341H112.924V300.451ZM85.3109 300.896V378.399H86.2008V300.896H85.3109ZM85.7558 377.954H66.4688V378.844H85.7558V377.954ZM66.9138 378.399V300.896H66.0238V378.399H66.9138ZM66.4688 300.451H39.3003V301.341H66.4688V300.451ZM39.7453 300.896V285.382H38.8553V300.896H39.7453ZM39.3003 285.828H112.924V284.937H39.3003V285.828ZM112.479 285.382V300.896H113.369V285.382H112.479ZM152.873 343.077V343.522H153.503L153.293 342.929L152.873 343.077ZM142.813 314.614L143.233 314.466L143.229 314.457L143.226 314.449L142.813 314.614ZM140.891 309.358L140.467 309.493L140.468 309.497L140.47 309.501L140.891 309.358ZM139.032 302.819L139.464 302.709L138.601 302.711L139.032 302.819ZM137.11 309.486L136.688 309.345L136.686 309.351L137.11 309.486ZM135.252 314.743L134.839 314.577L134.835 314.586L134.832 314.594L135.252 314.743ZM125.256 343.077L124.836 342.929L124.627 343.522H125.256V343.077ZM185.167 378.399V378.844H185.819L185.582 378.238L185.167 378.399ZM166.137 377.245L165.861 377.594L165.868 377.601L165.877 377.607L166.137 377.245ZM163.83 374.168L163.411 374.317L163.414 374.328L163.419 374.338L163.83 374.168ZM157.55 356.411L157.97 356.262L157.865 355.966H157.55V356.411ZM120.514 356.411V355.966H120.2L120.095 356.262L120.514 356.411ZM114.235 374.168L114.648 374.333L114.651 374.325L114.654 374.317L114.235 374.168ZM111.992 377.117L112.27 377.465L112.274 377.461L112.278 377.458L111.992 377.117ZM92.8973 378.399L92.483 378.237L92.2458 378.844H92.8973V378.399ZM129.229 285.382V284.937H128.925L128.814 285.22L129.229 285.382ZM148.9 285.382L149.315 285.221L149.205 284.937H148.9V285.382ZM153.293 342.929L143.233 314.466L142.393 314.763L152.453 343.225L153.293 342.929ZM143.226 314.449C142.632 312.962 141.994 311.218 141.312 309.214L140.47 309.501C141.155 311.515 141.798 313.275 142.4 314.78L143.226 314.449ZM141.315 309.222C140.677 307.223 140.06 305.052 139.464 302.709L138.601 302.929C139.201 305.287 139.823 307.475 140.467 309.493L141.315 309.222ZM138.601 302.711C138.005 305.095 137.367 307.306 136.688 309.345L137.532 309.627C138.22 307.563 138.864 305.33 139.464 302.927L138.601 302.711ZM136.686 309.351C136.048 311.352 135.432 313.094 134.839 314.577L135.665 314.908C136.268 313.4 136.891 311.637 137.534 309.621L136.686 309.351ZM134.832 314.594L124.836 342.929L125.676 343.225L135.671 314.891L134.832 314.594ZM125.256 343.522H152.873V342.632H125.256V343.522ZM185.167 377.954H170.238V378.844H185.167V377.954ZM170.238 377.954C168.64 377.954 167.371 377.586 166.397 376.884L165.877 377.607C167.039 378.443 168.504 378.844 170.238 378.844V377.954ZM166.413 376.896C165.449 376.133 164.726 375.169 164.241 373.998L163.419 374.338C163.96 375.646 164.774 376.734 165.861 377.594L166.413 376.896ZM164.25 374.02L157.97 356.262L157.131 356.56L163.411 374.317L164.25 374.02ZM157.55 355.966H120.514V356.856H157.55V355.966ZM120.095 356.262L113.816 374.02L114.654 374.317L120.934 356.56L120.095 356.262ZM113.822 374.003C113.427 374.99 112.73 375.916 111.706 376.776L112.278 377.458C113.391 376.523 114.188 375.483 114.648 374.333L113.822 374.003ZM111.714 376.769C110.739 377.55 109.497 377.954 107.955 377.954V378.844C109.66 378.844 111.109 378.394 112.27 377.465L111.714 376.769ZM107.955 377.954H92.8973V378.844H107.955V377.954ZM93.312 378.561L129.643 285.544L128.814 285.22L92.483 378.237L93.312 378.561ZM129.229 285.828H148.9V284.937H129.229V285.828ZM148.486 285.544L184.753 378.561L185.582 378.238L149.315 285.221L148.486 285.544ZM219.404 328.269L219.547 328.69L219.55 328.689L219.553 328.688L219.404 328.269ZM224.978 324.999L225.283 325.324L225.286 325.321L225.288 325.319L224.978 324.999ZM228.182 320.063L227.764 319.911L228.182 320.063ZM224.786 303.652L224.5 303.993L224.502 303.996L224.786 303.652ZM201.462 299.998V299.553H201.017V299.998H201.462ZM201.462 329.423H201.017V329.868H201.462V329.423ZM256.376 378.399V378.844H257.194L256.749 378.157L256.376 378.399ZM231.963 374.681L232.347 374.456L232.343 374.451L232.341 374.446L231.963 374.681ZM214.277 346.154L214.656 345.92L214.653 345.915L214.65 345.911L214.277 346.154ZM211.842 343.718L211.614 344.1L211.618 344.102L211.622 344.105L211.842 343.718ZM201.462 342.949V342.504H201.017V342.949H201.462ZM201.462 378.399V378.844H201.907V378.399H201.462ZM182.239 378.399H181.794V378.844H182.239V378.399ZM182.239 285.382V284.937H181.794V285.382H182.239ZM228.118 287.434L227.992 287.861L227.995 287.862L228.118 287.434ZM245.931 301.601L245.52 301.77L245.52 301.772L245.931 301.601ZM246.636 321.281L246.212 321.145L246.212 321.149L246.636 321.281ZM242.856 328.782L242.497 328.518L242.856 328.782ZM236.704 334.808L236.964 335.169L236.704 334.808ZM228.374 339.039L228.23 338.617L227.28 338.943L228.159 339.429L228.374 339.039ZM231.834 341.539L231.533 341.866L231.537 341.869L231.54 341.873L231.834 341.539ZM234.718 344.936L234.344 345.177L234.344 345.178L234.718 344.936ZM211.33 329.868C214.483 329.868 217.225 329.479 219.547 328.69L219.26 327.847C217.054 328.597 214.414 328.978 211.33 328.978V329.868ZM219.553 328.688C221.864 327.859 223.778 326.741 225.283 325.324L224.673 324.675C223.273 325.993 221.471 327.054 219.254 327.85L219.553 328.688ZM225.288 325.319C226.788 323.862 227.893 322.16 228.6 320.216L227.764 319.911C227.103 321.727 226.073 323.316 224.668 324.68L225.288 325.319ZM228.6 320.216C229.303 318.281 229.652 316.178 229.652 313.909H228.762C228.762 316.085 228.428 318.085 227.764 319.911L228.6 320.216ZM229.652 313.909C229.652 309.397 228.135 305.843 225.069 303.309L224.502 303.996C227.332 306.334 228.762 309.618 228.762 313.909H229.652ZM225.072 303.311C222.052 300.779 217.486 299.553 211.458 299.553V300.444C217.391 300.444 221.71 301.654 224.5 303.993L225.072 303.311ZM211.458 299.553H201.462V300.444H211.458V299.553ZM201.017 299.998V329.423H201.907V299.998H201.017ZM201.462 329.868H211.33V328.978H201.462V329.868ZM256.376 377.954H239.011V378.844H256.376V377.954ZM239.011 377.954C235.897 377.954 233.707 376.778 232.347 374.456L231.579 374.906C233.123 377.541 235.631 378.844 239.011 378.844V377.954ZM232.341 374.446L214.656 345.92L213.899 346.389L231.584 374.916L232.341 374.446ZM214.65 345.911C213.896 344.757 213.036 343.888 212.063 343.332L211.622 344.105C212.443 344.574 213.207 345.329 213.905 346.398L214.65 345.911ZM212.072 343.337C211.115 342.762 209.736 342.504 207.998 342.504V343.394C209.677 343.394 210.862 343.649 211.614 344.1L212.072 343.337ZM207.998 342.504H201.462V343.394H207.998V342.504ZM201.017 342.949V378.399H201.907V342.949H201.017ZM201.462 377.954H182.239V378.844H201.462V377.954ZM182.684 378.399V285.382H181.794V378.399H182.684ZM182.239 285.828H211.458V284.937H182.239V285.828ZM211.458 285.828C217.922 285.828 223.431 286.509 227.992 287.861L228.244 287.007C223.578 285.624 217.98 284.937 211.458 284.937V285.828ZM227.995 287.862C232.566 289.174 236.289 291.009 239.179 293.356L239.74 292.665C236.735 290.226 232.897 288.343 228.241 287.006L227.995 287.862ZM239.179 293.356C242.072 295.706 244.182 298.509 245.52 301.77L246.343 301.432C244.946 298.026 242.742 295.103 239.74 292.665L239.179 293.356ZM245.52 301.772C246.863 305.003 247.537 308.577 247.537 312.499H248.427C248.427 308.472 247.734 304.781 246.342 301.43L245.52 301.772ZM247.537 312.499C247.537 315.532 247.095 318.413 246.212 321.145L247.06 321.418C247.971 318.594 248.427 315.62 248.427 312.499H247.537ZM246.212 321.149C245.371 323.838 244.133 326.293 242.497 328.518L243.214 329.046C244.91 326.74 246.192 324.195 247.061 321.414L246.212 321.149ZM242.497 328.518C240.861 330.743 238.844 332.719 236.444 334.446L236.964 335.169C239.434 333.391 241.518 331.35 243.214 329.046L242.497 328.518ZM236.444 334.446C234.048 336.171 231.311 337.562 228.23 338.617L228.518 339.46C231.674 338.378 234.49 336.949 236.964 335.169L236.444 334.446ZM228.159 339.429C229.366 340.094 230.491 340.907 231.533 341.866L232.136 341.211C231.042 340.204 229.86 339.35 228.589 338.649L228.159 339.429ZM231.54 341.873C232.574 342.783 233.509 343.883 234.344 345.177L235.092 344.695C234.218 343.339 233.23 342.174 232.128 341.204L231.54 341.873ZM234.344 345.178L256.002 378.641L256.749 378.157L235.091 344.694L234.344 345.178Z" fill="url(#paint2_linear)"/>
</g>
<defs>
<linearGradient id="paint0_linear" x1="91.6651" y1="223.033" x2="209.584" y2="223.053" gradientUnits="userSpaceOnUse">
<stop stop-color="#FAD756"/>
<stop offset="1" stop-color="white" stop-opacity="0"/>
</linearGradient>
<linearGradient id="paint1_linear" x1="91.4426" y1="159.373" x2="222.529" y2="158.038" gradientUnits="userSpaceOnUse">
<stop stop-color="white"/>
<stop offset="1" stop-color="white" stop-opacity="0"/>
</linearGradient>
<linearGradient id="paint2_linear" x1="48.5661" y1="257.311" x2="248.289" y2="254.213" gradientUnits="userSpaceOnUse">
<stop stop-color="white"/>
<stop offset="1" stop-color="white" stop-opacity="0"/>
</linearGradient>
<clipPath id="clip0">
<rect width="186" height="406" fill="white"/>
</clipPath>
</defs>
</svg>
